<svg id="svg" version="1.1" xmlns="http://www.w3.org/2000/svg" xmlns:xlink="http://www.w3.org/1999/xlink" width="400" height="400" viewBox="0, 0, 400,400"><g id="svgg"><path id="path0" d="M62.800 137.600 C 62.800 137.820,62.440 138.000,62.000 138.000 C 61.560 138.000,61.200 138.141,61.200 138.314 C 61.200 138.486,60.660 138.946,60.000 139.336 C 59.340 139.726,58.800 140.265,58.800 140.534 C 58.800 140.803,58.440 141.283,58.000 141.600 C 57.394 142.036,57.200 142.635,57.200 144.065 C 57.200 146.220,57.737 146.846,58.440 145.511 C 58.704 145.010,59.028 144.510,59.161 144.400 C 59.293 144.290,59.656 143.705,59.968 143.100 C 60.280 142.495,60.865 142.000,61.268 142.000 C 61.670 142.000,62.000 141.805,62.000 141.567 C 62.000 141.117,64.344 141.271,65.158 141.774 C 65.683 142.098,65.753 144.258,65.248 144.570 C 65.055 144.690,64.802 145.151,64.686 145.594 C 64.370 146.802,65.067 146.175,66.148 144.279 C 67.729 141.507,67.859 139.316,66.512 138.157 C 65.392 137.194,62.800 136.805,62.800 137.600 M136.400 141.774 C 136.400 143.342,137.200 145.656,137.481 144.900 C 137.583 144.625,137.922 144.400,138.233 144.400 C 138.647 144.400,138.800 143.859,138.800 142.400 C 138.800 140.444,138.773 140.400,137.600 140.400 C 136.500 140.400,136.400 140.514,136.400 141.774 M75.219 145.037 C 73.631 146.132,73.009 147.035,73.593 147.395 C 73.922 147.599,75.536 146.640,77.317 145.185 C 78.377 144.319,76.456 144.183,75.219 145.037 M136.800 147.400 C 136.800 147.730,136.980 148.000,137.200 148.000 C 137.420 148.000,137.600 147.730,137.600 147.400 C 137.600 147.070,137.420 146.800,137.200 146.800 C 136.980 146.800,136.800 147.070,136.800 147.400 M78.691 149.253 C 77.849 149.724,77.776 150.800,78.586 150.800 C 79.248 150.800,80.168 149.351,79.693 149.057 C 79.522 148.952,79.072 149.040,78.691 149.253 M126.058 150.585 C 126.827 151.390,127.026 151.453,127.139 150.933 C 127.286 150.261,126.567 149.616,125.658 149.606 C 125.313 149.602,125.458 149.958,126.058 150.585 M133.600 150.997 C 130.923 151.896,131.961 154.308,134.782 153.744 C 136.062 153.488,137.201 152.295,137.199 151.211 C 137.198 150.448,135.529 150.349,133.600 150.997 M57.876 151.300 C 57.323 152.702,57.280 153.083,57.615 153.625 C 58.093 154.398,58.512 153.251,58.306 151.734 C 58.185 150.843,58.093 150.750,57.876 151.300 M74.538 152.617 C 74.408 152.957,74.406 153.339,74.533 153.467 C 74.937 153.870,76.000 153.251,76.000 152.613 C 76.000 151.814,74.845 151.818,74.538 152.617 M120.800 153.400 C 120.800 154.234,122.255 155.607,123.100 155.568 C 123.652 155.544,123.674 155.488,123.207 155.304 C 122.304 154.950,121.600 154.128,121.600 153.429 C 121.600 153.083,121.420 152.800,121.200 152.800 C 120.980 152.800,120.800 153.070,120.800 153.400 M54.000 154.364 C 47.092 158.017,44.671 164.679,48.767 168.762 C 50.428 170.419,55.862 172.196,55.000 170.800 C 54.864 170.580,54.465 170.400,54.114 170.400 C 53.032 170.400,50.824 168.430,50.164 166.876 C 48.827 163.730,49.924 160.735,54.054 156.253 C 57.179 152.861,57.174 152.685,54.000 154.364 M108.607 154.778 C 108.444 155.291,108.583 155.840,108.973 156.230 C 109.318 156.575,109.600 157.024,109.600 157.229 C 109.600 157.433,109.790 157.600,110.023 157.600 C 110.764 157.600,110.295 154.225,109.534 154.081 C 109.143 154.006,108.761 154.294,108.607 154.778 M57.900 155.030 C 57.735 155.197,57.600 156.101,57.600 157.040 C 57.600 158.314,57.423 158.802,56.899 158.969 C 56.095 159.224,54.974 160.800,55.597 160.800 C 55.818 160.800,56.000 160.620,56.000 160.400 C 56.000 160.180,56.360 160.000,56.800 160.000 C 57.698 160.000,57.872 162.133,57.693 170.978 C 57.628 174.150,57.725 175.235,58.042 174.918 C 58.324 174.636,58.501 171.792,58.540 166.940 L 58.600 159.400 59.600 159.506 C 63.234 159.893,65.235 165.269,62.980 168.591 C 61.662 170.534,61.951 170.770,63.734 169.205 C 68.197 165.286,65.673 158.400,59.773 158.400 C 58.478 158.400,58.441 158.353,58.322 156.563 C 58.255 155.552,58.065 154.862,57.900 155.030 M159.263 156.447 C 158.884 157.055,158.857 157.417,159.167 157.727 C 159.405 157.965,159.600 159.480,159.600 161.094 C 159.600 163.099,159.801 164.335,160.234 164.996 C 160.964 166.110,160.704 166.800,159.557 166.800 C 157.514 166.800,155.518 168.702,156.610 169.608 C 158.986 171.580,162.000 168.565,162.000 164.216 L 162.000 161.200 163.600 161.200 C 165.426 161.200,165.817 160.222,164.400 159.200 C 163.960 158.883,163.600 158.369,163.600 158.058 C 163.600 156.268,160.171 154.994,159.263 156.447 M99.040 160.335 C 98.200 161.695,101.883 163.546,103.242 162.447 L 104.109 161.744 103.001 160.872 C 101.902 160.008,99.448 159.675,99.040 160.335 M141.411 160.906 C 141.075 161.385,140.800 162.010,140.800 162.294 C 140.800 162.578,140.634 163.123,140.432 163.505 C 139.109 166.003,138.327 168.830,138.802 169.402 C 139.494 170.236,139.873 170.149,140.109 169.100 C 140.441 167.623,142.471 162.230,142.849 161.820 C 143.381 161.244,143.270 160.512,142.611 160.260 C 142.270 160.129,141.764 160.401,141.411 160.906 M147.031 164.218 C 146.600 165.938,147.604 166.688,148.384 165.229 C 148.866 164.329,148.541 163.200,147.801 163.200 C 147.518 163.200,147.172 163.658,147.031 164.218 M55.378 164.835 C 54.966 165.502,55.893 166.267,56.445 165.715 C 56.907 165.253,56.618 164.400,56.000 164.400 C 55.806 164.400,55.526 164.596,55.378 164.835 M145.443 168.233 C 145.014 169.351,145.183 170.400,145.792 170.400 C 146.442 170.400,147.031 168.697,146.614 168.023 C 146.236 167.411,145.723 167.503,145.443 168.233 M119.063 170.452 C 118.061 171.278,117.679 171.839,117.940 172.100 C 118.403 172.563,122.101 170.087,121.764 169.541 C 121.381 168.921,120.602 169.184,119.063 170.452 M74.800 171.107 C 73.160 171.673,71.958 172.911,72.078 173.912 C 72.243 175.299,72.799 175.390,74.427 174.295 C 76.295 173.039,76.594 170.488,74.800 171.107 M143.798 173.607 C 143.485 175.036,143.691 175.404,144.610 175.052 C 145.031 174.890,145.210 174.435,145.127 173.733 C 144.946 172.207,144.123 172.129,143.798 173.607 M39.652 174.303 C 39.136 175.267,40.655 177.275,41.222 176.379 C 41.695 175.631,41.689 175.314,41.186 174.374 C 40.671 173.412,40.142 173.388,39.652 174.303 M122.998 174.402 C 122.204 175.280,122.406 175.837,123.383 175.462 C 123.722 175.332,124.000 174.859,124.000 174.413 C 124.000 173.403,123.903 173.402,122.998 174.402 M87.000 175.592 C 86.560 175.777,84.698 176.334,82.862 176.830 C 79.877 177.637,78.667 178.401,79.327 179.060 C 79.553 179.287,83.101 178.570,84.600 177.995 C 85.040 177.826,86.176 177.478,87.125 177.221 C 88.357 176.887,88.814 176.569,88.725 176.110 C 88.571 175.314,88.042 175.156,87.000 175.592 M51.067 175.867 C 50.381 176.553,51.595 178.000,52.856 178.000 C 53.642 178.000,53.641 177.981,52.800 176.800 C 51.937 175.588,51.553 175.381,51.067 175.867 M119.280 177.280 C 118.631 177.929,118.675 178.400,119.386 178.400 C 119.708 178.400,120.165 178.040,120.400 177.600 C 120.895 176.675,120.109 176.451,119.280 177.280 M30.159 180.164 C 29.741 181.252,31.117 182.400,32.838 182.400 C 34.679 182.400,35.160 181.782,34.125 180.747 C 33.034 179.657,30.496 179.284,30.159 180.164 M164.799 180.998 C 165.872 182.141,166.274 182.060,165.618 180.834 C 165.373 180.375,164.877 180.000,164.516 180.000 C 163.984 180.000,164.037 180.188,164.799 180.998 M87.376 182.592 C 86.707 183.103,86.682 183.239,87.198 183.576 C 87.838 183.996,89.223 183.331,89.511 182.466 C 89.732 181.803,88.299 181.888,87.376 182.592 M106.400 182.939 C 106.400 183.936,106.862 184.809,107.260 184.563 C 107.466 184.436,108.077 184.621,108.618 184.975 C 109.760 185.723,109.810 185.460,108.841 183.800 C 108.087 182.510,106.400 181.915,106.400 182.939 M82.880 183.680 C 82.095 184.465,82.329 184.861,83.497 184.727 C 84.775 184.579,85.329 183.200,84.109 183.200 C 83.697 183.200,83.144 183.416,82.880 183.680 M159.612 183.851 C 159.599 184.773,160.645 185.888,161.098 185.435 C 161.251 185.282,161.187 185.031,160.954 184.878 C 160.722 184.725,160.327 184.240,160.078 183.800 C 159.631 183.012,159.624 183.013,159.612 183.851 M78.100 185.065 C 77.825 185.176,77.600 185.534,77.600 185.860 C 77.600 186.732,79.756 186.398,79.926 185.500 C 80.058 184.805,79.232 184.608,78.100 185.065 M48.813 189.900 C 48.832 190.359,50.800 191.693,50.800 191.247 C 50.800 191.033,50.517 190.574,50.171 190.229 C 49.510 189.567,48.791 189.393,48.813 189.900 M159.005 191.849 C 158.672 192.646,158.400 193.510,158.400 193.769 C 158.400 194.028,158.252 194.411,158.071 194.620 C 157.142 195.692,156.219 199.641,156.810 200.015 C 157.710 200.584,157.802 200.513,158.270 198.900 C 158.509 198.075,159.192 196.087,159.788 194.483 C 160.825 191.691,160.898 190.400,160.018 190.400 C 159.794 190.400,159.338 191.052,159.005 191.849 M104.100 192.842 C 103.165 193.305,102.400 193.845,102.400 194.042 C 102.400 194.246,96.290 194.400,88.187 194.400 C 69.486 194.400,68.800 194.713,68.800 203.236 L 68.800 206.353 67.100 206.688 C 65.775 206.948,65.372 207.219,65.272 207.911 C 65.146 208.789,65.204 208.800,70.200 208.800 C 75.207 208.800,75.254 208.791,75.128 207.904 C 75.052 207.371,74.676 206.960,74.200 206.889 C 71.515 206.487,71.600 206.593,71.600 203.652 C 71.600 200.536,72.426 198.888,74.785 197.299 L 76.150 196.378 102.846 196.489 C 129.073 196.598,129.562 196.614,130.671 197.423 C 132.424 198.702,133.600 201.377,133.600 204.085 L 133.600 206.400 132.374 206.400 C 130.728 206.400,129.600 207.056,129.600 208.014 C 129.600 208.753,129.897 208.800,134.600 208.800 C 139.359 208.800,139.600 208.761,139.600 207.987 C 139.600 207.090,138.890 206.701,136.759 206.431 C 136.626 206.414,136.415 204.690,136.291 202.599 C 135.816 194.643,135.325 194.403,119.500 194.401 L 107.200 194.400 107.200 193.200 C 107.200 191.731,106.507 191.651,104.100 192.842 M44.412 193.671 C 44.397 194.526,45.458 195.600,46.318 195.600 C 46.837 195.600,46.791 195.469,46.101 194.986 C 45.618 194.648,45.044 194.063,44.824 193.686 C 44.455 193.053,44.423 193.052,44.412 193.671 M165.049 194.216 C 164.560 195.492,164.768 196.465,165.500 196.324 C 165.975 196.232,166.200 195.816,166.200 195.028 C 166.200 193.739,165.438 193.202,165.049 194.216 M30.700 197.080 C 29.291 198.046,28.697 199.200,29.609 199.200 C 30.336 199.200,33.230 197.090,33.088 196.663 C 32.842 195.925,32.228 196.032,30.700 197.080 M163.467 198.267 C 163.320 198.413,163.200 199.043,163.200 199.667 C 163.200 201.091,164.282 201.209,164.630 199.823 C 164.976 198.445,164.254 197.479,163.467 198.267 M33.986 201.417 C 33.220 202.340,34.093 203.050,34.946 202.197 C 35.306 201.837,35.600 201.376,35.600 201.171 C 35.600 200.581,34.547 200.741,33.986 201.417 M161.849 203.416 C 161.360 204.692,161.568 205.665,162.300 205.524 C 162.775 205.432,163.000 205.016,163.000 204.228 C 163.000 202.939,162.238 202.402,161.849 203.416 M30.625 204.232 C 29.732 205.125,30.298 205.817,31.230 204.973 C 31.643 204.599,31.885 204.137,31.767 203.947 C 31.474 203.473,31.354 203.503,30.625 204.232 M38.667 213.467 C 38.253 213.880,38.353 215.923,38.800 216.200 C 39.042 216.349,39.200 215.804,39.200 214.824 C 39.200 213.166,39.134 212.999,38.667 213.467 M44.181 214.813 C 44.171 215.657,44.306 216.258,44.481 216.150 C 44.885 215.900,44.900 213.709,44.500 213.463 C 44.335 213.362,44.192 213.970,44.181 214.813 M65.400 228.097 C 56.967 230.989,53.369 239.133,57.314 246.400 C 58.921 249.360,63.002 252.400,65.369 252.400 C 65.910 252.400,66.464 252.580,66.600 252.800 C 66.736 253.020,67.546 253.200,68.400 253.200 C 69.254 253.200,70.064 253.020,70.200 252.800 C 70.336 252.580,70.949 252.400,71.562 252.400 C 74.566 252.400,80.400 246.549,80.400 243.536 C 80.400 242.937,80.580 242.336,80.800 242.200 C 81.020 242.064,81.200 241.254,81.200 240.400 C 81.200 239.546,81.020 238.736,80.800 238.600 C 80.580 238.464,80.400 237.910,80.400 237.369 C 80.400 231.862,71.130 226.132,65.400 228.097 M130.600 228.000 C 130.464 228.220,129.901 228.400,129.348 228.400 C 126.787 228.400,121.200 233.900,121.200 236.422 C 121.200 236.824,121.020 237.264,120.800 237.400 C 120.580 237.536,120.400 238.886,120.400 240.400 C 120.400 241.914,120.580 243.264,120.800 243.400 C 121.020 243.536,121.200 244.009,121.200 244.452 C 121.200 246.872,127.038 252.400,129.593 252.400 C 130.016 252.400,130.821 252.609,131.381 252.864 C 134.600 254.331,144.400 248.899,144.400 245.648 C 144.400 245.269,144.593 244.767,144.829 244.531 C 145.362 243.998,145.400 237.157,144.875 236.140 C 144.665 235.733,144.247 234.865,143.947 234.212 C 142.081 230.158,132.129 225.526,130.600 228.000 M86.880 234.080 C 86.199 234.761,86.199 252.439,86.880 253.120 C 87.235 253.475,90.940 253.600,101.070 253.600 L 114.779 253.600 115.412 252.376 C 116.266 250.725,116.129 235.316,115.251 234.260 C 114.543 233.409,87.721 233.239,86.880 234.080 M113.626 235.614 C 114.332 235.992,114.400 236.498,114.400 241.400 C 114.400 248.199,115.694 247.600,101.000 247.600 C 86.351 247.600,87.598 248.151,87.606 241.686 C 87.612 236.520,87.732 235.898,88.800 235.492 C 89.917 235.066,112.814 235.179,113.626 235.614 M94.262 239.931 C 93.354 240.935,93.414 242.672,94.374 243.186 C 95.502 243.790,107.708 243.732,108.320 243.120 C 109.035 242.405,108.901 240.365,108.100 239.757 C 106.892 238.840,95.115 238.989,94.262 239.931 M82.978 258.545 C 82.305 261.225,82.845 262.200,85.000 262.200 L 87.000 262.200 87.123 260.717 C 87.366 257.790,83.656 255.846,82.978 258.545 M88.581 258.534 C 88.449 259.059,88.399 260.099,88.471 260.845 L 88.600 262.200 94.720 262.311 L 100.841 262.421 100.720 260.111 L 100.600 257.800 94.710 257.689 L 88.821 257.579 88.581 258.534 M102.685 257.848 C 102.528 258.005,102.400 259.093,102.400 260.267 L 102.400 262.400 104.420 262.400 L 106.440 262.400 106.320 260.100 L 106.200 257.800 104.585 257.681 C 103.698 257.616,102.843 257.691,102.685 257.848 M108.285 257.848 C 108.128 258.005,108.000 259.093,108.000 260.267 L 108.000 262.400 110.020 262.400 L 112.040 262.400 111.920 260.100 L 111.800 257.800 110.185 257.681 C 109.298 257.616,108.443 257.691,108.285 257.848 M114.285 257.848 C 114.128 258.005,114.000 259.093,114.000 260.267 L 114.000 262.400 116.020 262.400 L 118.040 262.400 117.920 260.100 L 117.800 257.800 116.185 257.681 C 115.298 257.616,114.443 257.691,114.285 257.848 M52.987 265.221 C 52.843 265.454,52.835 266.086,52.970 266.624 L 53.216 267.603 100.308 267.502 L 147.400 267.400 147.400 266.200 L 147.400 265.000 100.325 264.898 C 67.466 264.827,53.170 264.925,52.987 265.221 " stroke="none" fill="#4f5562" fill-rule="evenodd"></path><path id="path1" d="M67.260 141.422 C 67.209 142.469,65.145 146.400,64.646 146.400 C 64.351 146.400,64.878 144.799,65.248 144.570 C 65.993 144.110,65.616 142.037,64.700 141.556 C 63.814 141.091,63.811 141.096,64.536 141.913 C 65.712 143.238,64.647 145.436,60.968 149.274 C 58.679 151.663,58.243 151.410,58.471 147.825 C 58.575 146.185,58.506 145.425,58.287 145.816 C 58.008 146.315,57.816 146.345,57.355 145.963 C 56.858 145.550,56.834 145.637,57.187 146.566 C 58.479 149.964,57.585 151.994,54.004 153.798 C 42.759 159.461,44.367 172.000,56.338 172.000 C 56.790 172.000,57.304 172.254,57.480 172.565 C 57.661 172.884,57.818 171.622,57.842 169.665 C 57.873 167.085,57.822 166.711,57.642 168.200 C 57.048 173.116,50.400 169.625,50.405 164.400 C 50.409 160.987,56.577 152.312,57.427 154.526 C 57.724 155.299,58.400 155.040,58.400 154.153 C 58.400 153.823,58.220 153.664,58.000 153.800 C 57.343 154.206,57.374 151.706,58.035 151.020 C 58.258 150.788,58.412 151.176,58.432 152.020 C 58.449 152.779,58.562 153.130,58.682 152.800 C 58.998 151.936,60.464 150.400,60.973 150.400 C 62.689 150.400,67.786 143.266,67.485 141.286 C 67.324 140.229,67.318 140.233,67.260 141.422 M74.500 145.035 C 72.617 146.620,72.472 147.085,73.500 148.225 C 75.188 150.095,75.417 151.118,74.391 152.210 C 72.892 153.805,74.277 155.105,75.825 153.557 C 76.826 152.556,76.629 150.400,75.536 150.400 C 75.351 150.400,75.200 150.040,75.200 149.600 C 75.200 149.160,75.020 148.800,74.800 148.800 C 74.011 148.800,74.424 148.023,75.748 147.013 C 77.215 145.893,78.400 145.996,78.400 147.243 C 78.400 147.659,78.580 148.000,78.800 148.000 C 79.401 148.000,79.232 147.178,78.267 145.405 C 77.147 143.349,76.570 143.292,74.500 145.035 M136.538 146.777 L 136.600 150.154 134.809 150.277 C 131.055 150.534,130.022 154.403,133.709 154.399 C 136.224 154.396,137.594 153.109,137.641 150.706 C 137.663 149.548,137.753 147.610,137.840 146.400 C 137.946 144.919,137.874 144.393,137.619 144.790 C 137.310 145.273,137.171 145.200,136.858 144.390 C 136.572 143.651,136.491 144.255,136.538 146.777 M77.317 145.185 C 74.583 147.419,72.643 148.125,73.514 146.568 C 74.147 145.437,76.563 144.053,77.117 144.505 C 77.401 144.737,77.491 145.043,77.317 145.185 M137.600 147.400 C 137.600 147.730,137.420 148.000,137.200 148.000 C 136.980 148.000,136.800 147.730,136.800 147.400 C 136.800 147.070,136.980 146.800,137.200 146.800 C 137.420 146.800,137.600 147.070,137.600 147.400 M78.470 148.926 C 77.410 150.054,77.335 151.200,78.320 151.200 C 79.120 151.200,80.007 150.467,79.988 149.820 C 79.981 149.589,79.792 149.715,79.568 150.100 C 79.073 150.949,78.000 151.027,78.000 150.214 C 78.000 149.562,79.352 148.685,79.747 149.081 C 79.886 149.220,80.000 149.033,80.000 148.667 C 80.000 147.747,79.497 147.832,78.470 148.926 M123.700 149.344 C 122.460 149.958,122.573 150.400,123.971 150.400 C 124.616 150.400,125.426 150.683,125.771 151.029 C 126.460 151.717,126.642 154.400,126.000 154.400 C 125.780 154.400,125.600 154.582,125.600 154.803 C 125.600 155.499,126.983 154.396,127.509 153.281 C 128.881 150.374,126.529 147.943,123.700 149.344 M126.739 149.954 C 127.036 150.142,127.216 150.583,127.139 150.933 C 127.026 151.453,126.827 151.390,126.058 150.585 C 125.129 149.614,125.565 149.210,126.739 149.954 M121.168 151.465 C 120.724 152.298,120.710 152.568,121.100 152.699 C 121.375 152.791,121.600 153.135,121.600 153.462 C 121.600 154.132,122.319 154.955,123.207 155.304 C 123.674 155.488,123.652 155.544,123.100 155.568 C 122.715 155.586,122.040 155.240,121.600 154.800 C 121.087 154.287,120.800 154.187,120.800 154.520 C 120.800 155.478,121.746 156.000,123.480 156.000 C 125.348 156.000,125.790 155.435,124.228 155.043 C 122.531 154.617,121.917 153.674,122.209 151.945 C 122.512 150.156,121.993 149.916,121.168 151.465 M137.199 151.211 C 137.201 152.295,136.062 153.488,134.782 153.744 C 131.961 154.308,130.923 151.896,133.600 150.997 C 135.529 150.349,137.198 150.448,137.199 151.211 M76.000 152.613 C 76.000 153.251,74.937 153.870,74.533 153.467 C 74.406 153.339,74.408 152.957,74.538 152.617 C 74.845 151.818,76.000 151.814,76.000 152.613 M54.054 156.253 C 49.924 160.735,48.827 163.730,50.164 166.876 C 50.824 168.430,53.032 170.400,54.114 170.400 C 54.465 170.400,54.864 170.580,55.000 170.800 C 55.862 172.196,50.428 170.419,48.767 168.762 C 44.671 164.679,47.092 158.017,54.000 154.364 C 57.174 152.685,57.179 152.861,54.054 156.253 M108.529 154.164 C 108.128 154.694,106.948 156.386,105.906 157.924 L 104.012 160.720 102.522 159.960 C 100.340 158.848,98.400 159.297,98.400 160.915 C 98.400 161.750,100.293 163.204,101.354 163.184 C 102.023 163.172,101.935 163.053,100.931 162.617 C 99.657 162.063,98.609 160.724,99.081 160.253 C 99.646 159.688,101.960 160.053,103.001 160.872 L 104.109 161.744 103.210 162.472 C 102.526 163.026,102.463 163.200,102.946 163.200 C 103.296 163.200,103.898 162.705,104.286 162.100 C 104.673 161.495,105.194 160.785,105.444 160.522 C 105.694 160.259,106.416 159.225,107.049 158.223 C 108.409 156.071,108.550 156.030,109.200 157.600 C 109.682 158.763,110.400 159.231,110.400 158.383 C 110.400 157.988,110.077 157.523,108.873 156.187 C 108.181 155.420,108.654 153.914,109.534 154.082 C 109.940 154.159,110.297 154.754,110.447 155.605 L 110.695 157.000 110.747 155.729 C 110.776 155.029,110.517 154.174,110.171 153.829 C 109.370 153.027,109.392 153.023,108.529 154.164 M58.454 157.300 C 58.405 158.294,58.531 158.400,59.751 158.400 C 65.672 158.400,68.207 165.277,63.734 169.205 C 61.951 170.770,61.662 170.534,62.980 168.591 C 65.235 165.269,63.234 159.893,59.600 159.506 L 58.600 159.400 58.540 166.940 C 58.501 171.812,58.324 174.636,58.040 174.920 C 57.720 175.240,57.600 175.147,57.599 174.580 C 57.597 173.975,57.422 174.087,56.820 175.074 C 55.448 177.324,54.091 177.607,52.861 175.902 C 52.197 174.980,50.660 175.127,50.469 176.130 C 50.224 177.413,51.542 178.400,53.500 178.400 C 56.547 178.400,58.252 176.886,58.766 173.725 C 58.940 172.650,59.292 172.096,60.005 171.769 C 63.494 170.170,64.284 169.635,65.272 168.200 C 68.226 163.910,65.365 158.000,60.334 158.000 C 59.119 158.000,58.825 157.840,58.682 157.100 C 58.534 156.328,58.501 156.357,58.454 157.300 M55.899 159.120 C 53.409 161.574,53.888 166.916,56.538 166.251 C 57.508 166.008,58.238 163.899,57.300 164.047 C 55.881 164.271,55.200 163.932,55.200 163.000 C 55.200 161.899,56.604 160.232,57.215 160.609 C 57.427 160.740,57.600 160.657,57.600 160.424 C 57.600 160.191,57.240 160.000,56.800 160.000 C 56.360 160.000,56.000 159.832,56.000 159.627 C 56.000 159.422,56.360 159.140,56.800 159.000 C 57.240 158.860,57.600 158.488,57.600 158.173 C 57.600 157.425,57.639 157.403,55.899 159.120 M141.303 160.091 C 140.633 160.921,137.946 168.427,138.078 169.097 C 138.202 169.725,138.547 169.961,140.500 170.754 C 143.544 171.989,143.508 171.948,143.295 173.832 C 143.140 175.211,143.238 175.640,143.754 175.838 C 144.814 176.245,145.655 175.230,145.520 173.706 C 145.396 172.297,144.884 171.851,142.106 170.732 C 140.448 170.063,140.272 169.537,141.051 167.588 C 141.790 165.742,141.578 165.820,143.540 166.670 C 145.049 167.323,145.081 167.381,144.892 169.063 C 144.679 170.954,145.461 171.745,146.605 170.796 C 148.129 169.531,146.711 166.400,144.614 166.400 C 144.276 166.400,144.000 166.220,144.000 166.000 C 144.000 165.780,143.640 165.600,143.200 165.600 C 142.154 165.600,142.102 163.656,143.115 162.405 L 143.831 161.522 145.215 162.300 C 146.435 162.987,146.585 163.245,146.477 164.471 C 146.268 166.825,147.994 167.519,148.798 165.404 C 149.363 163.920,148.853 162.976,147.070 162.204 C 146.152 161.805,144.950 161.170,144.400 160.792 C 142.909 159.768,141.771 159.510,141.303 160.091 M61.164 160.581 C 64.159 162.130,64.067 168.359,61.024 169.987 C 59.048 171.045,58.800 170.491,58.800 165.013 C 58.800 159.516,58.865 159.393,61.164 160.581 M143.200 160.963 C 143.200 161.225,143.042 161.611,142.849 161.820 C 142.471 162.230,140.441 167.623,140.109 169.100 C 139.873 170.149,139.494 170.236,138.802 169.402 C 138.327 168.830,139.109 166.003,140.432 163.505 C 140.634 163.123,140.800 162.578,140.800 162.294 C 140.800 161.370,141.998 160.024,142.611 160.260 C 142.935 160.384,143.200 160.700,143.200 160.963 M72.000 162.605 C 72.000 163.158,72.159 163.923,72.353 164.305 C 72.548 164.687,72.884 165.450,73.100 166.000 C 73.316 166.550,73.686 167.450,73.921 168.000 C 74.902 170.288,74.859 170.586,73.445 171.348 C 71.991 172.131,71.079 173.619,71.454 174.595 C 71.847 175.621,72.271 175.263,72.093 174.054 C 71.914 172.836,73.314 171.435,75.007 171.139 C 76.473 170.882,76.056 173.195,74.441 174.284 C 73.693 174.788,73.352 175.200,73.682 175.200 C 75.955 175.200,76.957 172.450,75.724 169.600 C 74.977 167.874,74.389 166.450,73.987 165.400 C 72.610 161.795,72.000 160.937,72.000 162.605 M148.556 163.829 C 148.689 164.175,148.611 164.805,148.384 165.229 C 147.604 166.688,146.600 165.938,147.031 164.218 C 147.316 163.083,148.184 162.861,148.556 163.829 M56.622 164.835 C 57.034 165.502,56.107 166.267,55.555 165.715 C 55.093 165.253,55.382 164.400,56.000 164.400 C 56.194 164.400,56.474 164.596,56.622 164.835 M159.762 165.240 C 159.792 165.998,159.572 166.226,158.714 166.325 C 157.181 166.502,155.466 168.602,156.016 169.629 C 156.754 171.009,160.202 170.509,161.487 168.835 C 162.362 167.695,161.995 167.371,161.086 168.480 C 159.981 169.826,157.238 170.410,156.454 169.465 C 155.810 168.689,157.019 167.343,158.690 166.977 C 161.074 166.454,161.199 166.298,160.262 165.017 C 159.757 164.326,159.726 164.340,159.762 165.240 M146.614 168.023 C 147.031 168.697,146.442 170.400,145.792 170.400 C 145.183 170.400,145.014 169.351,145.443 168.233 C 145.723 167.503,146.236 167.411,146.614 168.023 M119.407 169.628 C 117.174 171.316,117.020 171.750,118.183 173.072 C 119.126 174.144,119.175 174.157,119.187 173.329 C 119.199 172.524,120.000 171.687,121.857 170.541 C 122.443 170.180,122.509 169.931,122.171 169.365 C 121.523 168.280,121.142 168.316,119.407 169.628 M121.764 169.541 C 122.101 170.087,118.403 172.563,117.940 172.100 C 117.679 171.839,118.061 171.278,119.063 170.452 C 120.602 169.184,121.381 168.921,121.764 169.541 M123.367 172.747 C 123.485 172.937,123.225 173.415,122.791 173.809 C 121.693 174.802,121.755 176.000,122.904 176.000 C 124.227 176.000,125.021 174.561,124.370 173.345 C 124.092 172.825,123.705 172.400,123.509 172.400 C 123.313 172.400,123.249 172.556,123.367 172.747 M145.127 173.733 C 145.210 174.435,145.031 174.890,144.610 175.052 C 143.691 175.404,143.485 175.036,143.798 173.607 C 144.123 172.129,144.946 172.207,145.127 173.733 M39.796 173.506 C 39.573 173.668,38.418 175.240,37.228 177.000 C 36.038 178.760,35.017 180.263,34.958 180.341 C 34.900 180.418,34.440 180.193,33.937 179.841 C 31.414 178.074,28.298 179.707,30.130 181.837 C 32.122 184.153,34.143 183.542,36.831 179.812 C 39.419 176.220,39.650 176.046,40.205 177.273 C 40.855 178.713,41.601 178.638,41.594 177.133 C 41.589 176.171,41.486 175.961,41.222 176.379 C 40.655 177.275,39.136 175.267,39.652 174.303 C 40.182 173.312,40.681 173.427,41.371 174.700 C 42.058 175.966,42.180 175.725,41.610 174.226 C 41.222 173.205,40.567 172.945,39.796 173.506 M124.000 174.413 C 124.000 175.219,122.992 175.926,122.519 175.452 C 122.304 175.237,123.491 173.600,123.862 173.600 C 123.938 173.600,124.000 173.966,124.000 174.413 M119.418 175.330 C 119.566 175.920,119.423 176.449,119.026 176.779 C 118.245 177.427,118.205 178.800,118.967 178.800 C 120.029 178.800,120.800 178.316,120.788 177.657 C 120.777 177.074,120.730 177.079,120.368 177.700 C 119.916 178.477,118.642 178.674,118.890 177.929 C 119.014 177.559,120.078 176.759,120.696 176.571 C 120.749 176.555,120.569 176.061,120.296 175.474 C 119.685 174.159,119.100 174.063,119.418 175.330 M83.800 176.031 C 82.480 176.448,81.105 176.792,80.744 176.795 C 79.575 176.804,78.123 178.265,78.700 178.852 C 78.975 179.131,79.200 180.123,79.200 181.056 C 79.200 181.989,79.380 182.864,79.600 183.000 C 79.844 183.151,80.000 182.544,80.000 181.442 C 80.000 179.698,80.050 179.624,81.500 179.221 C 83.745 178.598,84.000 178.677,84.000 180.000 C 84.000 180.660,84.180 181.200,84.400 181.200 C 84.620 181.200,84.800 180.598,84.800 179.861 C 84.800 178.868,85.032 178.410,85.700 178.088 C 86.424 177.739,86.462 177.649,85.895 177.627 C 85.507 177.612,84.877 177.761,84.495 177.957 C 83.452 178.494,79.586 179.319,79.327 179.060 C 78.667 178.401,79.877 177.637,82.862 176.830 C 84.698 176.334,86.560 175.776,87.000 175.591 L 87.800 175.254 87.000 175.264 C 86.560 175.269,85.120 175.614,83.800 176.031 M52.800 176.800 C 53.641 177.981,53.642 178.000,52.856 178.000 C 51.595 178.000,50.381 176.553,51.067 175.867 C 51.553 175.381,51.937 175.588,52.800 176.800 M88.800 176.300 C 88.800 176.538,88.305 176.914,87.700 177.135 L 86.600 177.537 87.660 177.568 C 89.474 177.622,89.510 181.015,87.705 181.872 C 86.291 182.543,85.874 184.005,87.100 183.994 C 87.701 183.989,87.715 183.931,87.200 183.586 C 86.476 183.102,87.640 182.000,88.876 182.000 C 89.861 182.000,89.786 182.624,88.711 183.377 C 88.044 183.844,87.982 184.000,88.462 184.000 C 89.761 184.000,89.998 183.089,89.602 179.615 C 89.282 176.808,88.800 174.817,88.800 176.300 M161.400 180.103 C 158.064 182.543,158.486 186.400,162.089 186.400 C 162.700 186.400,163.200 186.220,163.200 186.000 C 163.200 185.780,163.445 185.600,163.745 185.600 C 164.901 185.600,166.400 183.550,166.400 181.968 C 166.400 179.328,163.790 178.355,161.400 180.103 M34.125 180.747 C 35.160 181.782,34.679 182.400,32.838 182.400 C 31.117 182.400,29.741 181.252,30.159 180.164 C 30.496 179.284,33.034 179.657,34.125 180.747 M165.618 180.834 C 166.274 182.060,165.872 182.141,164.799 180.998 C 164.037 180.188,163.984 180.000,164.516 180.000 C 164.877 180.000,165.373 180.375,165.618 180.834 M163.781 180.864 C 166.409 182.062,164.591 185.861,161.882 184.831 C 160.274 184.220,160.020 181.073,161.546 180.667 C 162.638 180.376,162.727 180.384,163.781 180.864 M106.098 182.500 C 105.871 182.785,105.838 183.344,106.021 183.800 C 106.199 184.240,106.356 186.265,106.372 188.300 C 106.388 190.481,106.564 192.000,106.800 192.000 C 107.020 192.000,107.200 192.540,107.200 193.200 L 107.200 194.400 119.500 194.401 C 135.325 194.403,135.816 194.643,136.291 202.599 C 136.415 204.690,136.626 206.414,136.759 206.431 C 138.890 206.701,139.600 207.090,139.600 207.987 C 139.600 208.761,139.359 208.800,134.600 208.800 C 129.897 208.800,129.600 208.753,129.600 208.014 C 129.600 207.056,130.728 206.400,132.374 206.400 L 133.600 206.400 133.600 204.085 C 133.600 201.377,132.424 198.702,130.671 197.423 C 129.562 196.614,129.073 196.598,102.846 196.489 L 76.150 196.378 74.785 197.299 C 72.426 198.888,71.600 200.536,71.600 203.652 C 71.600 206.593,71.515 206.487,74.200 206.889 C 74.676 206.960,75.052 207.371,75.128 207.904 C 75.254 208.791,75.207 208.800,70.200 208.800 C 65.204 208.800,65.146 208.789,65.272 207.911 C 65.372 207.219,65.775 206.948,67.100 206.688 L 68.800 206.353 68.800 203.236 C 68.800 194.713,69.486 194.400,88.187 194.400 C 96.290 194.400,102.400 194.246,102.400 194.042 C 102.400 193.845,103.165 193.305,104.100 192.842 C 105.288 192.254,105.545 192.001,104.954 192.000 C 104.489 192.000,103.650 192.360,103.091 192.800 C 102.119 193.564,101.468 193.600,88.508 193.600 C 69.707 193.600,68.000 194.426,68.000 203.526 L 68.000 205.898 66.427 206.149 C 65.082 206.364,64.835 206.561,64.727 207.500 L 64.600 208.600 57.800 208.800 C 50.531 209.014,49.984 209.152,48.243 211.222 L 47.200 212.461 47.200 236.869 C 47.200 264.633,46.975 262.838,50.663 264.469 C 52.503 265.283,52.719 265.746,51.815 266.939 C 51.351 267.551,50.891 267.640,49.128 267.458 C 44.226 266.953,44.604 266.905,44.560 268.038 C 44.528 268.891,44.684 269.059,45.433 268.977 C 46.076 268.906,46.282 269.043,46.130 269.438 C 45.856 270.152,47.227 270.197,47.979 269.500 C 48.414 269.096,48.457 269.106,48.203 269.552 C 47.989 269.928,48.066 270.044,48.444 269.917 C 48.750 269.814,49.225 270.016,49.501 270.365 C 49.940 270.922,49.973 270.901,49.768 270.200 L 49.535 269.400 50.221 270.200 C 50.761 270.829,50.858 270.855,50.674 270.320 C 50.301 269.234,57.180 268.596,57.835 269.656 C 57.952 269.845,61.421 270.000,65.544 270.000 C 70.076 270.000,73.200 270.160,73.446 270.406 C 74.240 271.200,143.247 270.391,144.229 269.576 C 144.932 268.993,146.135 269.555,145.590 270.212 C 144.911 271.030,151.518 270.800,152.697 269.964 C 153.191 269.614,153.551 269.252,153.497 269.159 C 153.444 269.066,153.600 269.218,153.844 269.495 C 154.349 270.069,155.846 270.173,156.165 269.656 C 156.282 269.467,155.932 269.361,155.387 269.421 C 153.985 269.575,154.521 268.961,156.092 268.614 C 156.811 268.455,157.175 268.237,156.900 268.129 C 156.625 268.022,156.400 267.678,156.400 267.367 C 156.400 266.757,155.381 266.583,155.041 267.134 C 154.649 267.767,152.993 267.358,153.118 266.659 C 153.187 266.272,152.970 266.000,152.594 266.000 C 152.230 266.000,152.070 266.190,152.225 266.440 C 152.402 266.727,152.180 266.711,151.588 266.393 C 150.809 265.977,150.713 265.997,150.919 266.533 C 151.091 266.981,150.982 267.091,150.539 266.921 C 150.198 266.790,149.777 266.913,149.603 267.194 C 149.372 267.569,149.106 267.428,148.609 266.670 C 147.815 265.458,148.081 264.800,149.364 264.800 C 150.639 264.800,152.882 263.204,153.600 261.785 C 154.629 259.752,154.487 213.473,153.446 211.754 C 152.081 209.500,150.751 209.022,145.217 208.800 C 140.300 208.603,140.231 208.587,140.001 207.600 C 139.839 206.906,139.343 206.462,138.384 206.149 L 137.000 205.698 136.800 202.081 C 136.368 194.260,135.128 193.645,119.749 193.619 L 108.097 193.600 107.649 190.584 C 106.826 185.055,106.992 184.468,109.033 185.673 C 110.727 186.672,110.924 185.916,109.500 183.884 C 108.107 181.897,106.955 181.428,106.098 182.500 M83.400 182.862 C 82.079 183.585,81.548 184.455,82.056 185.067 C 82.673 185.811,83.322 185.734,84.546 184.771 C 86.494 183.239,85.558 181.681,83.400 182.862 M108.841 183.800 C 109.810 185.460,109.760 185.723,108.618 184.975 C 108.077 184.621,107.466 184.436,107.260 184.563 C 106.862 184.809,106.400 183.936,106.400 182.939 C 106.400 181.915,108.087 182.510,108.841 183.800 M84.726 183.900 C 84.646 184.322,84.158 184.650,83.497 184.727 C 82.329 184.861,82.095 184.465,82.880 183.680 C 83.630 182.930,84.882 183.079,84.726 183.900 M160.954 184.878 C 161.187 185.031,161.251 185.282,161.098 185.435 C 160.645 185.888,159.599 184.773,159.612 183.851 C 159.624 183.013,159.631 183.012,160.078 183.800 C 160.327 184.240,160.722 184.725,160.954 184.878 M78.373 184.507 C 76.858 185.528,76.643 186.288,77.686 186.945 C 78.622 187.536,80.600 186.073,80.600 184.790 C 80.600 183.506,79.975 183.427,78.373 184.507 M79.926 185.500 C 79.756 186.398,77.600 186.732,77.600 185.860 C 77.600 185.221,78.170 184.882,79.329 184.832 C 79.816 184.811,80.014 185.033,79.926 185.500 M47.300 189.349 C 46.057 189.957,46.174 190.400,47.577 190.400 C 49.583 190.400,50.673 193.420,49.050 194.478 C 48.815 194.631,48.726 194.859,48.851 194.984 C 48.976 195.110,49.556 194.735,50.139 194.152 C 52.562 191.729,50.289 187.885,47.300 189.349 M50.171 190.229 C 50.517 190.574,50.800 191.033,50.800 191.247 C 50.800 191.693,48.832 190.359,48.813 189.900 C 48.791 189.393,49.510 189.567,50.171 190.229 M158.090 193.067 C 155.622 199.542,155.542 200.148,157.091 200.646 C 157.637 200.822,160.856 202.265,161.511 202.627 C 161.572 202.661,161.437 203.176,161.211 203.771 C 160.444 205.789,162.233 207.408,163.211 205.580 C 164.133 203.857,163.555 202.759,161.030 201.429 C 158.266 199.974,158.180 199.823,159.005 197.849 C 159.952 195.583,163.549 196.891,162.683 199.187 C 161.910 201.234,163.963 202.596,164.859 200.629 C 165.470 199.289,165.017 197.838,163.811 197.273 C 163.255 197.013,162.305 196.575,161.700 196.301 C 160.172 195.607,160.040 195.314,160.531 193.714 C 161.317 191.153,164.718 192.150,164.477 194.871 C 164.263 197.273,165.997 197.911,166.825 195.735 C 167.378 194.279,166.722 193.415,164.102 192.149 C 162.836 191.538,161.708 190.908,161.596 190.751 C 160.476 189.174,159.270 189.970,158.090 193.067 M160.649 190.983 C 160.772 191.303,160.384 192.878,159.788 194.483 C 159.192 196.087,158.509 198.075,158.270 198.900 C 157.802 200.513,157.710 200.584,156.810 200.015 C 156.219 199.641,157.142 195.692,158.071 194.620 C 158.252 194.411,158.400 194.028,158.400 193.769 C 158.400 191.901,160.163 189.717,160.649 190.983 M44.496 191.595 C 43.771 192.755,43.881 194.821,44.700 195.443 C 45.518 196.064,48.400 196.186,48.400 195.600 C 48.400 195.380,48.122 195.200,47.782 195.200 C 46.540 195.200,45.118 193.282,45.402 191.989 C 45.701 190.629,45.228 190.423,44.496 191.595 M46.101 194.986 C 46.791 195.469,46.837 195.600,46.318 195.600 C 45.458 195.600,44.397 194.526,44.412 193.671 C 44.423 193.052,44.455 193.053,44.824 193.686 C 45.044 194.063,45.618 194.648,46.101 194.986 M166.200 195.028 C 166.200 195.816,165.975 196.232,165.500 196.324 C 164.768 196.465,164.560 195.492,165.049 194.216 C 165.438 193.202,166.200 193.739,166.200 195.028 M30.300 196.678 C 28.573 197.864,28.276 199.445,29.600 200.400 C 30.040 200.717,30.400 201.297,30.400 201.688 C 30.400 202.080,30.580 202.400,30.800 202.400 C 31.020 202.400,31.200 202.141,31.200 201.824 C 31.200 201.507,31.020 201.136,30.800 201.000 C 30.036 200.528,30.408 199.635,31.814 198.563 C 33.781 197.062,35.561 199.297,33.800 201.057 C 32.428 202.429,33.777 203.887,35.215 202.587 C 36.000 201.876,36.313 200.000,35.647 200.000 C 35.453 200.000,34.810 199.010,34.218 197.800 C 32.992 195.296,32.513 195.159,30.300 196.678 M33.088 196.663 C 33.230 197.090,30.336 199.200,29.609 199.200 C 28.697 199.200,29.291 198.046,30.700 197.080 C 32.228 196.032,32.842 195.925,33.088 196.663 M129.785 197.600 C 132.700 199.076,134.339 206.000,131.774 206.000 C 130.337 206.000,129.226 206.680,128.791 207.824 L 128.420 208.800 102.298 208.800 L 76.175 208.800 75.729 207.618 C 75.425 206.812,74.920 206.356,74.142 206.185 C 73.514 206.046,72.775 205.864,72.500 205.779 C 70.634 205.204,72.608 199.138,75.143 197.657 C 77.065 196.534,127.577 196.482,129.785 197.600 M164.614 198.423 C 165.031 199.097,164.442 200.800,163.792 200.800 C 163.409 200.800,163.200 200.401,163.200 199.667 C 163.200 198.120,163.995 197.421,164.614 198.423 M35.600 201.171 C 35.600 201.376,35.306 201.837,34.946 202.197 C 34.093 203.050,33.220 202.340,33.986 201.417 C 34.547 200.741,35.600 200.581,35.600 201.171 M30.472 203.403 C 29.388 204.650,29.318 206.000,30.338 206.000 C 31.514 206.000,32.480 204.659,32.176 203.447 C 31.849 202.144,31.573 202.137,30.472 203.403 M163.000 204.228 C 163.000 205.016,162.775 205.432,162.300 205.524 C 161.568 205.665,161.360 204.692,161.849 203.416 C 162.238 202.402,163.000 202.939,163.000 204.228 M31.767 203.947 C 31.885 204.137,31.643 204.599,31.230 204.973 C 30.298 205.817,29.732 205.125,30.625 204.232 C 31.354 203.503,31.474 203.473,31.767 203.947 M38.658 212.981 C 36.456 215.022,38.097 217.600,41.600 217.600 C 45.100 217.600,46.902 214.682,44.546 212.829 C 42.761 211.425,41.776 211.764,43.200 213.292 C 44.130 214.291,44.195 215.110,43.423 216.128 C 42.601 217.212,40.366 216.894,39.715 215.600 L 39.212 214.600 39.206 215.524 C 39.203 216.036,39.022 216.337,38.800 216.200 C 38.580 216.064,38.400 215.434,38.400 214.800 C 38.400 213.554,39.182 212.681,39.227 213.876 C 39.250 214.478,39.327 214.448,39.688 213.700 C 39.927 213.205,40.375 212.800,40.685 212.800 C 40.994 212.800,41.136 212.620,41.000 212.400 C 40.592 211.741,39.779 211.942,38.658 212.981 M44.800 214.800 C 44.800 215.434,44.657 216.041,44.481 216.150 C 44.306 216.258,44.171 215.657,44.181 214.813 C 44.192 213.970,44.335 213.362,44.500 213.463 C 44.665 213.565,44.800 214.166,44.800 214.800 M61.400 217.800 L 61.400 221.000 58.600 221.000 L 55.800 221.000 55.678 218.617 C 55.466 214.500,55.580 214.344,58.712 214.482 L 61.400 214.600 61.400 217.800 M121.357 215.033 C 121.828 216.260,121.616 220.289,121.056 220.754 C 120.660 221.082,112.770 221.177,92.156 221.103 L 63.800 221.000 63.680 218.240 C 63.615 216.722,63.654 215.237,63.768 214.940 C 64.107 214.055,121.017 214.147,121.357 215.033 M144.716 217.700 L 144.600 221.000 142.400 221.000 L 140.200 221.000 140.084 217.700 L 139.968 214.400 142.400 214.400 L 144.832 214.400 144.716 217.700 M128.600 217.800 L 128.600 220.600 126.400 220.600 L 124.200 220.600 124.078 218.245 C 123.905 214.892,124.017 214.736,126.496 214.879 L 128.600 215.000 128.600 217.800 M139.017 215.727 C 139.145 216.236,139.194 217.541,139.125 218.627 L 139.000 220.600 135.200 220.600 L 131.400 220.600 131.275 218.627 C 131.037 214.864,131.103 214.800,135.200 214.800 C 138.614 214.800,138.796 214.844,139.017 215.727 M72.100 228.459 C 76.346 229.799,80.400 234.151,80.400 237.369 C 80.400 237.910,80.580 238.464,80.800 238.600 C 81.020 238.736,81.200 239.546,81.200 240.400 C 81.200 241.254,81.020 242.064,80.800 242.200 C 80.580 242.336,80.400 242.937,80.400 243.536 C 80.400 246.549,74.566 252.400,71.562 252.400 C 70.949 252.400,70.336 252.580,70.200 252.800 C 70.064 253.020,69.254 253.200,68.400 253.200 C 67.546 253.200,66.736 253.020,66.600 252.800 C 66.464 252.580,65.910 252.400,65.369 252.400 C 63.002 252.400,58.921 249.360,57.314 246.400 C 53.991 240.279,56.465 232.181,62.540 229.297 C 66.587 227.375,68.213 227.233,72.100 228.459 M135.640 228.034 C 139.550 229.281,142.785 231.687,143.947 234.212 C 144.247 234.865,144.665 235.733,144.875 236.140 C 145.400 237.157,145.362 243.998,144.829 244.531 C 144.593 244.767,144.400 245.269,144.400 245.648 C 144.400 248.899,134.600 254.331,131.381 252.864 C 130.821 252.609,130.016 252.400,129.593 252.400 C 127.038 252.400,121.200 246.872,121.200 244.452 C 121.200 244.009,121.020 243.536,120.800 243.400 C 120.580 243.264,120.400 241.914,120.400 240.400 C 120.400 238.886,120.580 237.536,120.800 237.400 C 121.020 237.264,121.200 236.824,121.200 236.422 C 121.200 233.900,126.787 228.400,129.348 228.400 C 129.901 228.400,130.464 228.220,130.600 228.000 C 130.928 227.469,133.935 227.490,135.640 228.034 M109.016 228.427 C 110.101 230.181,109.284 230.323,98.486 230.260 L 88.200 230.200 88.073 229.090 L 87.945 227.981 98.363 228.013 C 104.486 228.033,108.878 228.203,109.016 228.427 M111.927 229.097 C 111.768 230.469,110.595 230.790,110.271 229.550 C 109.975 228.419,110.240 228.000,111.250 228.000 C 111.890 228.000,112.027 228.223,111.927 229.097 M114.600 229.200 C 114.600 229.825,114.342 230.239,113.899 230.324 C 113.107 230.477,112.592 229.519,112.956 228.570 C 113.337 227.576,114.600 228.060,114.600 229.200 M115.251 234.260 C 116.129 235.316,116.266 250.725,115.412 252.376 L 114.779 253.600 101.070 253.600 C 90.940 253.600,87.235 253.475,86.880 253.120 C 86.199 252.439,86.199 234.761,86.880 234.080 C 87.721 233.239,114.543 233.409,115.251 234.260 M86.809 258.417 C 87.050 258.866,87.191 259.901,87.123 260.717 L 87.000 262.200 85.000 262.200 C 82.845 262.200,82.305 261.225,82.978 258.545 C 83.303 257.251,86.134 257.156,86.809 258.417 M100.720 260.111 L 100.841 262.421 94.720 262.311 L 88.600 262.200 88.471 260.845 C 88.399 260.099,88.449 259.059,88.581 258.534 L 88.821 257.579 94.710 257.689 L 100.600 257.800 100.720 260.111 M106.320 260.100 L 106.440 262.400 104.420 262.400 L 102.400 262.400 102.400 260.267 C 102.400 257.687,102.533 257.530,104.585 257.681 L 106.200 257.800 106.320 260.100 M111.920 260.100 L 112.040 262.400 110.020 262.400 L 108.000 262.400 108.000 260.267 C 108.000 257.687,108.133 257.530,110.185 257.681 L 111.800 257.800 111.920 260.100 M117.920 260.100 L 118.040 262.400 116.020 262.400 L 114.000 262.400 114.000 260.267 C 114.000 257.687,114.133 257.530,116.185 257.681 L 117.800 257.800 117.920 260.100 M147.400 266.200 L 147.400 267.400 100.308 267.502 L 53.216 267.603 52.970 266.624 C 52.835 266.086,52.843 265.454,52.987 265.221 C 53.170 264.925,67.466 264.827,100.325 264.898 L 147.400 265.000 147.400 266.200 " stroke="none" fill="#8b8788" fill-rule="evenodd"></path><path id="path2" d="M247.280 185.680 C 245.619 187.341,247.175 190.106,249.668 189.923 C 251.546 189.785,252.056 188.923,251.698 186.484 C 251.493 185.091,248.427 184.533,247.280 185.680 M283.600 196.400 L 283.600 207.600 285.600 207.600 L 287.600 207.600 287.600 196.400 L 287.600 185.200 285.600 185.200 L 283.600 185.200 283.600 196.400 M340.400 196.400 L 340.400 207.600 342.400 207.600 L 344.400 207.600 344.400 202.171 C 344.400 196.554,344.657 195.600,346.171 195.600 C 346.517 195.600,346.800 195.420,346.800 195.200 C 346.800 194.463,348.251 194.790,349.130 195.726 C 349.936 196.583,350.000 197.056,350.000 202.126 L 350.000 207.600 352.000 207.600 L 354.000 207.600 354.000 200.800 C 354.000 196.533,353.851 194.000,353.600 194.000 C 353.380 194.000,353.199 193.685,353.197 193.300 C 353.195 192.915,352.709 192.375,352.117 192.100 C 350.831 191.503,345.200 191.421,345.200 192.000 C 345.200 192.220,345.020 192.400,344.800 192.400 C 344.563 192.400,344.400 190.933,344.400 188.800 L 344.400 185.200 342.400 185.200 L 340.400 185.200 340.400 196.400 M191.600 196.800 L 191.600 207.600 193.600 207.600 L 195.600 207.600 195.600 201.200 C 195.600 197.200,195.750 194.800,196.000 194.800 C 196.220 194.800,196.400 195.145,196.400 195.567 C 196.400 195.988,196.535 196.393,196.700 196.467 C 197.076 196.634,198.375 198.764,198.671 199.700 C 198.793 200.085,199.052 200.400,199.247 200.400 C 199.441 200.400,199.600 200.760,199.600 201.200 C 199.600 201.640,199.780 202.000,200.000 202.000 C 200.220 202.000,200.400 202.278,200.400 202.618 C 200.400 203.517,202.225 205.200,203.200 205.200 C 204.175 205.200,206.000 203.517,206.000 202.618 C 206.000 202.278,206.180 202.000,206.400 202.000 C 206.620 202.000,206.800 201.640,206.800 201.200 C 206.800 200.760,206.980 200.400,207.200 200.400 C 207.420 200.400,207.600 200.055,207.600 199.633 C 207.600 199.212,207.735 198.807,207.900 198.733 C 208.276 198.566,209.575 196.436,209.871 195.500 C 210.493 193.541,210.800 195.427,210.800 201.200 L 210.800 207.600 212.800 207.600 L 214.800 207.600 214.800 196.800 L 214.800 186.000 212.400 186.000 C 210.504 186.000,210.000 186.130,210.000 186.617 C 210.000 186.956,209.640 187.620,209.200 188.092 C 208.760 188.564,208.400 189.187,208.400 189.475 C 208.400 189.764,208.220 190.000,208.000 190.000 C 207.780 190.000,207.600 190.360,207.600 190.800 C 207.600 191.240,207.420 191.600,207.200 191.600 C 206.980 191.600,206.800 191.960,206.800 192.400 C 206.800 192.840,206.620 193.200,206.400 193.200 C 206.180 193.200,206.000 193.478,206.000 193.817 C 206.000 194.156,205.640 194.820,205.200 195.292 C 204.760 195.764,204.400 196.387,204.400 196.675 C 204.400 196.964,204.220 197.200,204.000 197.200 C 203.780 197.200,203.600 197.560,203.600 198.000 C 203.600 198.986,202.974 199.053,202.671 198.100 C 202.375 197.164,201.076 195.034,200.700 194.867 C 200.535 194.793,200.400 194.403,200.400 194.000 C 200.400 193.597,200.265 193.207,200.100 193.133 C 199.724 192.966,198.425 190.836,198.129 189.900 C 198.007 189.515,197.748 189.200,197.553 189.200 C 197.359 189.200,197.200 188.840,197.200 188.400 C 197.200 187.960,197.020 187.600,196.800 187.600 C 196.580 187.600,196.400 187.240,196.400 186.800 C 196.400 186.089,196.133 186.000,194.000 186.000 L 191.600 186.000 191.600 196.800 M290.980 186.507 C 290.873 186.786,290.834 191.601,290.893 197.207 L 291.000 207.400 297.352 207.510 C 303.422 207.616,306.000 207.256,306.000 206.302 C 306.000 206.136,306.278 206.000,306.618 206.000 C 307.418 206.000,309.200 204.218,309.200 203.418 C 309.200 203.078,309.380 202.800,309.600 202.800 C 309.820 202.800,310.000 202.440,310.000 202.000 C 310.000 201.560,310.180 201.200,310.400 201.200 C 310.642 201.200,310.800 199.467,310.800 196.800 C 310.800 194.133,310.642 192.400,310.400 192.400 C 310.180 192.400,310.000 192.040,310.000 191.600 C 310.000 191.160,309.820 190.800,309.600 190.800 C 309.380 190.800,309.200 190.575,309.200 190.300 C 309.199 189.525,307.384 187.600,306.653 187.600 C 306.294 187.600,305.999 187.465,305.997 187.300 C 305.984 186.023,291.461 185.256,290.980 186.507 M300.600 189.600 C 300.736 189.820,301.287 190.000,301.824 190.000 C 302.361 190.000,302.800 190.180,302.800 190.400 C 302.800 190.620,303.145 190.800,303.566 190.800 C 304.033 190.800,304.541 191.269,304.864 192.000 C 305.156 192.660,305.531 193.200,305.698 193.200 C 305.864 193.200,306.000 193.652,306.000 194.205 C 306.000 194.758,306.223 195.568,306.496 196.005 C 306.891 196.638,306.891 196.962,306.496 197.595 C 306.223 198.032,306.000 198.842,306.000 199.395 C 306.000 199.948,305.820 200.400,305.600 200.400 C 305.380 200.400,305.200 200.683,305.200 201.029 C 305.200 201.837,304.237 202.800,303.429 202.800 C 303.083 202.800,302.800 202.980,302.800 203.200 C 302.800 203.420,302.361 203.600,301.824 203.600 C 301.287 203.600,300.736 203.780,300.600 204.000 C 300.464 204.220,299.283 204.400,297.976 204.400 L 295.600 204.400 295.600 196.800 L 295.600 189.200 297.976 189.200 C 299.283 189.200,300.464 189.380,300.600 189.600 M217.612 192.185 C 217.267 192.601,217.189 193.964,217.343 196.885 C 217.711 203.857,218.169 205.925,219.600 207.087 C 220.430 207.761,226.653 207.772,226.967 207.100 C 227.153 206.700,227.247 206.700,227.433 207.100 C 227.574 207.401,228.451 207.600,229.633 207.600 L 231.600 207.600 231.600 199.600 L 231.600 191.600 229.600 191.600 L 227.600 191.600 227.600 197.029 C 227.600 202.646,227.343 203.600,225.829 203.600 C 225.483 203.600,225.200 203.780,225.200 204.000 C 225.200 204.681,223.361 204.440,222.662 203.669 C 222.112 203.060,222.000 201.982,222.000 197.269 L 222.000 191.600 220.049 191.600 C 218.824 191.600,217.917 191.818,217.612 192.185 M234.900 192.610 C 234.405 193.139,234.000 193.837,234.000 194.162 C 234.000 194.487,233.820 194.864,233.600 195.000 C 233.380 195.136,233.200 195.676,233.200 196.200 C 233.200 196.724,233.380 197.264,233.600 197.400 C 233.820 197.536,234.000 197.976,234.000 198.378 C 234.000 199.163,235.581 200.400,236.586 200.400 C 236.924 200.400,237.200 200.580,237.200 200.800 C 237.200 201.020,237.740 201.200,238.400 201.200 C 239.060 201.200,239.600 201.380,239.600 201.600 C 239.600 201.820,239.876 202.000,240.213 202.000 C 241.103 202.000,241.377 203.080,240.667 203.790 C 239.993 204.464,237.200 204.634,237.200 204.000 C 237.200 203.434,234.259 203.501,233.680 204.080 C 232.900 204.860,233.095 206.447,234.000 206.684 C 234.440 206.799,234.800 207.052,234.800 207.247 C 234.800 207.441,236.516 207.600,238.613 207.600 L 242.427 207.600 243.813 206.213 C 245.175 204.851,245.967 200.400,244.847 200.400 C 244.652 200.400,244.399 200.040,244.284 199.600 C 244.169 199.160,243.788 198.800,243.437 198.800 C 243.087 198.800,242.800 198.620,242.800 198.400 C 242.800 198.180,242.260 198.000,241.600 198.000 C 240.940 198.000,240.400 197.820,240.400 197.600 C 240.400 197.380,240.062 197.200,239.649 197.200 C 238.505 197.200,237.777 196.151,238.400 195.400 C 238.954 194.733,241.200 194.572,241.200 195.200 C 241.200 195.814,243.982 195.675,244.629 195.029 C 245.432 194.225,245.345 193.709,244.218 192.582 C 242.752 191.116,236.281 191.135,234.900 192.610 M247.600 199.600 L 247.600 207.600 249.600 207.600 L 251.600 207.600 251.600 199.600 L 251.600 191.600 249.600 191.600 L 247.600 191.600 247.600 199.600 M255.700 193.420 C 254.355 194.813,254.000 195.476,254.000 196.591 C 254.000 197.366,253.820 198.000,253.600 198.000 C 253.380 198.000,253.200 198.720,253.200 199.600 C 253.200 200.480,253.380 201.200,253.600 201.200 C 253.820 201.200,254.000 201.920,254.000 202.800 C 254.000 203.680,254.141 204.400,254.314 204.400 C 254.486 204.400,254.946 204.940,255.336 205.600 C 255.726 206.260,256.305 206.800,256.623 206.800 C 256.940 206.800,257.200 206.980,257.200 207.200 C 257.200 208.176,264.771 207.665,265.818 206.618 C 268.119 204.317,265.667 201.388,263.292 203.600 C 261.937 204.862,258.810 204.236,258.803 202.700 C 258.801 202.315,258.620 202.000,258.400 202.000 C 258.178 202.000,258.000 200.933,258.000 199.600 C 258.000 198.267,258.178 197.200,258.400 197.200 C 258.620 197.200,258.800 196.840,258.800 196.400 C 258.800 195.867,259.067 195.600,259.600 195.600 C 260.040 195.600,260.400 195.420,260.400 195.200 C 260.400 194.980,260.940 194.800,261.600 194.800 C 262.260 194.800,262.800 194.980,262.800 195.200 C 262.800 195.420,263.700 195.600,264.800 195.600 C 266.727 195.600,266.800 195.559,266.800 194.472 C 266.800 192.328,265.330 191.596,261.097 191.629 L 257.400 191.658 255.700 193.420 M270.800 192.000 C 270.800 192.220,270.517 192.400,270.171 192.400 C 269.280 192.400,268.400 193.393,268.400 194.400 C 268.400 194.871,268.657 195.514,268.971 195.829 C 269.621 196.478,271.600 196.607,271.600 196.000 C 271.600 195.780,271.960 195.600,272.400 195.600 C 272.840 195.600,273.200 195.420,273.200 195.200 C 273.200 194.593,275.179 194.722,275.829 195.371 C 277.342 196.885,276.566 198.000,274.000 198.000 C 272.667 198.000,271.600 198.178,271.600 198.400 C 271.600 198.620,271.366 198.800,271.080 198.800 C 270.017 198.800,268.406 199.823,268.403 200.500 C 268.401 200.885,268.220 201.200,268.000 201.200 C 267.130 201.200,267.558 205.350,268.547 206.500 C 269.615 207.742,276.043 208.223,276.567 207.100 C 276.753 206.700,276.847 206.700,277.033 207.100 C 277.174 207.401,278.051 207.600,279.233 207.600 L 281.200 207.600 281.200 202.224 C 281.200 199.071,281.035 196.745,280.800 196.600 C 280.580 196.464,280.400 195.949,280.400 195.456 C 280.400 194.065,279.552 192.596,278.446 192.074 C 277.217 191.495,270.800 191.432,270.800 192.000 M314.057 192.750 C 312.080 194.440,312.496 196.400,314.832 196.400 C 315.694 196.400,316.400 196.220,316.400 196.000 C 316.400 195.780,316.760 195.600,317.200 195.600 C 317.640 195.600,318.000 195.420,318.000 195.200 C 318.000 194.467,319.224 194.788,320.218 195.782 C 321.921 197.485,321.551 198.000,318.624 198.000 C 317.207 198.000,315.936 198.180,315.800 198.400 C 315.664 198.620,315.285 198.800,314.958 198.800 C 314.121 198.800,312.400 200.618,312.400 201.502 C 312.400 201.908,312.184 202.456,311.920 202.720 C 311.547 203.093,311.547 203.307,311.920 203.680 C 312.184 203.944,312.400 204.643,312.400 205.234 C 312.400 206.918,313.838 207.600,317.386 207.600 C 319.129 207.600,320.400 207.431,320.400 207.200 C 320.400 206.980,320.760 206.800,321.200 206.800 C 321.640 206.800,322.000 206.980,322.000 207.200 C 322.000 207.420,322.720 207.600,323.600 207.600 L 325.200 207.600 325.200 201.395 C 325.200 194.944,325.076 194.361,323.318 192.522 C 321.867 191.004,315.928 191.150,314.057 192.750 M328.100 193.100 C 325.457 196.094,327.565 201.200,331.443 201.200 C 332.075 201.200,333.480 201.934,334.313 202.700 C 334.771 203.121,334.762 203.295,334.257 203.800 C 333.590 204.467,330.800 204.629,330.800 204.000 C 330.800 203.780,329.900 203.600,328.800 203.600 L 326.800 203.600 326.800 205.200 C 326.800 206.533,326.933 206.800,327.600 206.800 C 328.040 206.800,328.400 206.980,328.400 207.200 C 328.400 207.439,329.939 207.600,332.218 207.600 C 336.220 207.600,338.000 206.805,338.000 205.018 C 338.000 204.678,338.180 204.400,338.400 204.400 C 338.620 204.400,338.800 203.569,338.800 202.554 C 338.800 200.470,336.709 198.000,334.945 198.000 C 334.451 198.000,333.936 197.820,333.800 197.600 C 333.664 197.380,333.191 197.200,332.748 197.200 C 331.352 197.200,330.547 196.078,331.451 195.392 C 332.309 194.743,334.800 194.600,334.800 195.200 C 334.800 195.420,335.520 195.600,336.400 195.600 C 337.974 195.600,338.000 195.576,338.000 194.144 C 338.000 192.011,337.234 191.625,333.000 191.626 L 329.400 191.627 328.100 193.100 M276.400 202.400 C 276.400 203.333,276.222 203.600,275.600 203.600 C 275.160 203.600,274.800 203.780,274.800 204.000 C 274.800 204.635,272.807 204.464,272.112 203.769 C 271.159 202.816,272.866 201.257,274.900 201.224 C 276.305 201.202,276.400 201.276,276.400 202.400 M321.200 201.818 C 321.200 202.976,319.334 204.400,317.818 204.400 C 316.062 204.400,315.698 202.537,317.300 201.744 C 318.734 201.034,321.200 201.081,321.200 201.818 M237.200 225.600 L 237.200 233.200 239.200 233.200 L 241.200 233.200 241.200 225.600 L 241.200 218.000 239.200 218.000 L 237.200 218.000 237.200 225.600 M264.400 225.600 L 264.400 233.200 266.400 233.200 L 268.400 233.200 268.400 225.600 L 268.400 218.000 266.400 218.000 L 264.400 218.000 264.400 225.600 M269.485 218.249 C 269.004 218.729,269.169 221.119,269.700 221.367 C 270.100 221.553,270.100 221.647,269.700 221.833 C 269.335 222.004,269.200 223.571,269.200 227.633 L 269.200 233.200 271.600 233.200 L 274.000 233.200 274.000 227.633 C 274.000 223.555,273.866 222.012,273.500 221.864 C 273.108 221.705,273.114 221.580,273.530 221.289 C 275.015 220.244,273.906 218.206,271.785 218.082 C 270.676 218.017,269.641 218.092,269.485 218.249 M225.200 226.000 L 225.200 233.200 227.600 233.200 L 230.000 233.200 230.000 230.800 L 230.000 228.400 231.818 228.400 C 233.834 228.400,235.600 227.112,235.600 225.642 C 235.600 225.205,235.780 224.736,236.000 224.600 C 236.220 224.464,236.400 223.924,236.400 223.400 C 236.400 222.876,236.220 222.336,236.000 222.200 C 235.780 222.064,235.600 221.636,235.600 221.249 C 235.600 219.484,233.866 218.800,229.397 218.800 L 225.200 218.800 225.200 226.000 M297.200 226.020 L 297.200 233.240 299.500 233.120 L 301.800 233.000 301.920 230.700 L 302.040 228.400 303.838 228.400 C 306.671 228.400,307.600 227.214,307.600 223.600 C 307.600 219.305,306.950 218.800,301.418 218.800 L 297.200 218.800 297.200 226.020 M285.200 220.554 C 285.200 221.982,284.808 222.097,280.153 222.029 C 275.163 221.956,274.800 222.173,274.800 225.225 C 274.800 227.000,274.962 227.446,275.900 228.253 L 277.000 229.199 275.900 229.200 C 274.847 229.200,274.800 229.285,274.800 231.200 L 274.800 233.200 278.328 233.200 C 281.595 233.200,281.920 233.126,282.728 232.197 C 283.941 230.802,283.927 228.184,282.700 227.093 C 282.090 226.550,281.961 226.235,282.300 226.113 C 282.575 226.014,282.800 225.588,282.800 225.167 C 282.800 224.252,283.060 224.203,283.829 224.971 C 284.223 225.366,284.400 226.480,284.400 228.571 C 284.400 230.237,284.559 231.600,284.753 231.600 C 284.948 231.600,285.201 231.960,285.316 232.400 C 285.502 233.111,285.862 233.200,288.563 233.200 L 291.600 233.200 291.600 231.200 C 291.600 229.467,291.493 229.200,290.800 229.200 C 290.360 229.200,290.000 229.380,290.000 229.600 C 290.000 229.820,289.820 230.000,289.600 230.000 C 289.378 230.000,289.200 228.933,289.200 227.600 L 289.200 225.200 290.400 225.200 C 291.533 225.200,291.600 225.111,291.600 223.600 C 291.600 222.097,291.529 222.000,290.427 222.000 C 289.444 222.000,289.233 221.821,289.127 220.900 C 288.939 219.273,285.200 218.944,285.200 220.554 M328.736 220.800 L 328.205 222.000 323.902 222.000 L 319.600 222.000 319.600 227.600 L 319.600 233.200 321.600 233.200 L 323.600 233.200 323.600 230.400 C 323.600 228.800,323.771 227.600,324.000 227.600 C 324.220 227.600,324.400 227.240,324.400 226.800 C 324.400 226.133,324.667 226.000,326.000 226.000 C 326.880 226.000,327.600 225.820,327.600 225.600 C 327.600 225.380,327.780 225.200,328.000 225.200 C 328.236 225.200,328.400 226.610,328.400 228.629 C 328.400 232.994,328.588 233.200,332.571 233.200 L 335.600 233.200 335.600 231.387 C 335.600 229.404,334.864 228.718,333.590 229.513 C 332.600 230.132,332.400 229.766,332.400 227.333 L 332.400 225.200 334.000 225.200 C 335.317 225.200,335.600 225.337,335.600 225.976 C 335.600 226.403,335.780 226.864,336.000 227.000 C 336.220 227.136,336.400 227.687,336.400 228.224 C 336.400 228.761,336.580 229.200,336.800 229.200 C 337.020 229.200,337.200 229.740,337.200 230.400 C 337.200 231.060,337.380 231.600,337.600 231.600 C 338.207 231.600,338.078 233.579,337.429 234.229 C 337.114 234.543,336.394 234.800,335.829 234.800 C 334.895 234.800,334.800 234.948,334.800 236.400 L 334.800 238.000 337.453 238.000 C 340.364 238.000,341.998 236.885,342.000 234.900 C 342.000 234.405,342.180 234.000,342.400 234.000 C 342.620 234.000,342.800 233.638,342.800 233.195 C 342.800 232.417,342.942 232.031,343.938 230.105 C 344.192 229.613,344.400 228.848,344.400 228.405 C 344.400 227.962,344.580 227.600,344.800 227.600 C 345.020 227.600,345.200 227.060,345.200 226.400 C 345.200 225.740,345.380 225.200,345.600 225.200 C 345.820 225.200,346.000 224.480,346.000 223.600 L 346.000 222.000 344.171 222.000 C 342.122 222.000,341.200 222.653,341.200 224.105 C 341.200 224.634,341.092 225.174,340.961 225.306 C 340.456 225.810,339.600 225.070,339.600 224.129 C 339.600 222.437,338.744 222.000,335.429 222.000 L 332.400 222.000 332.400 220.800 C 332.400 219.671,332.307 219.600,330.834 219.600 C 329.478 219.600,329.196 219.761,328.736 220.800 M231.600 223.650 C 231.600 224.011,231.240 224.401,230.800 224.516 C 230.115 224.695,230.000 224.528,230.000 223.359 C 230.000 222.093,230.059 222.030,230.800 222.493 C 231.240 222.768,231.600 223.288,231.600 223.650 M243.280 222.480 C 242.655 223.105,242.666 224.503,243.300 225.148 C 243.701 225.556,243.622 225.802,242.900 226.393 C 242.144 227.011,242.000 227.522,242.000 229.593 C 242.000 233.081,242.191 233.200,247.771 233.200 L 252.400 233.200 252.400 229.200 C 252.400 226.800,252.560 225.200,252.800 225.200 C 253.020 225.200,253.200 225.549,253.200 225.976 C 253.200 226.403,253.380 226.864,253.600 227.000 C 253.820 227.136,254.000 227.687,254.000 228.224 C 254.000 228.761,254.180 229.200,254.400 229.200 C 254.620 229.200,254.800 229.740,254.800 230.400 C 254.800 231.060,254.980 231.600,255.200 231.600 C 255.807 231.600,255.678 233.579,255.029 234.229 C 254.714 234.543,253.994 234.800,253.429 234.800 C 252.495 234.800,252.400 234.948,252.400 236.400 L 252.400 238.000 255.053 238.000 C 257.964 238.000,259.598 236.885,259.600 234.900 C 259.600 234.405,259.780 234.000,260.000 234.000 C 260.220 234.000,260.400 233.638,260.400 233.195 C 260.400 232.752,260.580 232.032,260.800 231.595 C 261.020 231.158,261.380 230.442,261.600 230.005 C 261.820 229.568,262.000 228.848,262.000 228.405 C 262.000 227.962,262.180 227.600,262.400 227.600 C 262.620 227.600,262.800 227.060,262.800 226.400 C 262.800 225.740,262.980 225.200,263.200 225.200 C 263.420 225.200,263.600 224.480,263.600 223.600 L 263.600 222.000 261.771 222.000 C 259.722 222.000,258.800 222.653,258.800 224.105 C 258.800 224.634,258.692 225.174,258.561 225.306 C 258.056 225.810,257.200 225.070,257.200 224.129 C 257.200 222.653,256.288 222.000,254.229 222.000 C 252.501 222.000,252.400 222.060,252.400 223.100 L 252.399 224.200 251.453 223.100 C 250.395 221.870,244.348 221.412,243.280 222.480 M309.080 222.817 C 308.962 223.267,309.016 224.157,309.199 224.795 C 309.469 225.738,309.351 226.165,308.566 227.078 C 305.588 230.541,307.805 233.200,313.672 233.200 L 318.000 233.200 318.000 228.262 C 318.000 222.008,317.994 222.000,312.915 222.000 C 309.604 222.000,309.275 222.070,309.080 222.817 M303.515 223.547 C 303.299 224.668,302.000 224.599,302.000 223.467 C 302.000 222.664,302.156 222.516,302.819 222.689 C 303.299 222.815,303.587 223.170,303.515 223.547 M247.600 225.600 C 247.600 225.820,247.240 226.000,246.800 226.000 C 246.360 226.000,246.000 225.820,246.000 225.600 C 246.000 225.380,246.360 225.200,246.800 225.200 C 247.240 225.200,247.600 225.380,247.600 225.600 M314.000 225.600 C 314.000 225.820,313.449 226.000,312.776 226.000 C 312.063 226.000,311.656 225.833,311.800 225.600 C 311.936 225.380,312.487 225.200,313.024 225.200 C 313.561 225.200,314.000 225.380,314.000 225.600 M247.600 229.600 C 247.600 229.820,247.240 230.000,246.800 230.000 C 246.360 230.000,246.000 229.820,246.000 229.600 C 246.000 229.380,246.360 229.200,246.800 229.200 C 247.240 229.200,247.600 229.380,247.600 229.600 M278.600 229.600 C 278.736 229.820,278.477 230.000,278.024 230.000 C 277.571 230.000,277.200 229.820,277.200 229.600 C 277.200 229.380,277.459 229.200,277.776 229.200 C 278.093 229.200,278.464 229.380,278.600 229.600 " stroke="none" fill="#39b4fc" fill-rule="evenodd"></path><path id="path3" d="M93.200 133.583 C 93.200 133.842,91.833 134.000,89.600 134.000 C 87.467 134.000,86.000 134.163,86.000 134.400 C 86.000 134.620,85.100 134.800,84.000 134.800 C 82.900 134.800,82.000 134.980,82.000 135.200 C 82.000 135.420,81.280 135.600,80.400 135.600 C 79.520 135.600,78.800 135.780,78.800 136.000 C 78.800 136.220,78.271 136.400,77.624 136.400 C 76.977 136.400,76.336 136.580,76.200 136.800 C 76.064 137.020,75.333 137.200,74.576 137.200 C 73.819 137.200,73.200 137.380,73.200 137.600 C 73.200 137.820,72.761 138.000,72.224 138.000 C 71.687 138.000,71.136 138.180,71.000 138.400 C 70.864 138.620,70.358 138.806,69.876 138.813 C 68.485 138.833,67.600 139.755,67.600 141.184 C 67.600 143.538,62.666 150.400,60.973 150.400 C 59.422 150.400,58.166 153.447,58.580 156.205 C 58.843 157.960,58.882 158.000,60.331 158.000 C 65.365 158.000,68.227 163.908,65.272 168.200 C 64.284 169.635,63.494 170.170,60.005 171.769 C 59.292 172.096,58.940 172.650,58.766 173.725 C 58.252 176.886,56.547 178.400,53.500 178.400 C 51.544 178.400,50.223 177.412,50.470 176.134 C 50.689 174.995,52.000 175.008,53.069 176.161 C 54.225 177.407,54.406 177.425,55.692 176.414 C 57.695 174.838,58.131 172.000,56.370 172.000 C 44.369 172.000,42.740 159.470,54.004 153.798 C 57.788 151.892,57.868 151.686,57.129 145.693 C 57.088 145.357,56.777 145.458,56.208 145.993 C 55.735 146.437,55.135 146.800,54.875 146.800 C 54.614 146.800,53.659 147.520,52.752 148.400 C 51.845 149.280,50.954 150.000,50.771 150.000 C 50.588 150.000,49.538 150.900,48.438 152.000 C 47.338 153.100,46.331 154.000,46.200 154.000 C 45.907 154.000,42.000 157.880,42.000 158.172 C 42.000 158.287,41.100 159.325,40.000 160.478 C 38.900 161.631,38.000 162.733,38.000 162.927 C 38.000 163.121,37.460 163.783,36.800 164.400 C 36.140 165.017,35.600 165.769,35.600 166.072 C 35.600 166.375,35.240 166.883,34.800 167.200 C 34.360 167.517,34.000 168.057,34.000 168.400 C 34.000 168.743,33.640 169.283,33.200 169.600 C 32.760 169.917,32.400 170.497,32.400 170.888 C 32.400 171.280,32.220 171.600,32.000 171.600 C 31.780 171.600,31.600 171.945,31.600 172.367 C 31.600 172.788,31.465 173.193,31.300 173.267 C 30.868 173.459,29.200 176.772,29.200 177.438 C 29.200 177.747,29.020 178.000,28.800 178.000 C 28.580 178.000,28.400 178.360,28.400 178.800 C 28.400 179.240,28.220 179.600,28.000 179.600 C 27.780 179.600,27.600 179.865,27.600 180.188 C 27.600 180.511,27.240 181.417,26.800 182.200 C 26.360 182.983,26.000 183.968,26.000 184.389 C 26.000 184.809,25.820 185.264,25.600 185.400 C 25.380 185.536,25.200 186.256,25.200 187.000 C 25.200 187.744,25.020 188.464,24.800 188.600 C 24.580 188.736,24.400 189.287,24.400 189.824 C 24.400 190.361,24.220 190.800,24.000 190.800 C 23.780 190.800,23.600 191.700,23.600 192.800 C 23.600 193.900,23.420 194.800,23.200 194.800 C 22.978 194.800,22.800 195.867,22.800 197.200 C 22.800 198.533,22.622 199.600,22.400 199.600 C 22.144 199.600,22.000 203.200,22.000 209.600 C 22.000 216.000,22.144 219.600,22.400 219.600 C 22.629 219.600,22.800 220.800,22.800 222.400 C 22.800 224.000,22.971 225.200,23.200 225.200 C 23.420 225.200,23.600 225.999,23.600 226.976 C 23.600 227.953,23.780 228.864,24.000 229.000 C 24.220 229.136,24.400 229.777,24.400 230.424 C 24.400 231.071,24.580 231.600,24.800 231.600 C 25.020 231.600,25.200 232.142,25.200 232.805 C 25.200 233.468,25.359 234.323,25.553 234.705 C 25.748 235.087,26.129 235.940,26.400 236.600 C 26.671 237.260,27.052 238.113,27.247 238.495 C 27.441 238.877,27.600 239.642,27.600 240.195 C 27.600 240.748,27.735 241.201,27.900 241.203 C 28.259 241.207,29.200 243.144,29.200 243.880 C 29.200 244.166,29.380 244.400,29.600 244.400 C 29.820 244.400,30.000 244.760,30.000 245.200 C 30.000 245.640,30.180 246.000,30.400 246.000 C 30.620 246.000,30.800 246.360,30.800 246.800 C 30.800 247.240,30.980 247.600,31.200 247.600 C 31.420 247.600,31.600 247.836,31.600 248.125 C 31.600 248.413,31.960 249.036,32.400 249.508 C 32.840 249.980,33.200 250.644,33.200 250.983 C 33.200 251.322,33.380 251.600,33.600 251.600 C 33.820 251.600,34.001 251.825,34.002 252.100 C 34.003 252.375,34.543 253.175,35.202 253.878 C 35.861 254.581,36.400 255.364,36.400 255.618 C 36.400 255.871,36.940 256.583,37.600 257.200 C 38.260 257.817,38.800 258.511,38.800 258.743 C 38.800 258.975,40.686 261.063,42.992 263.383 L 47.184 267.600 49.248 267.600 C 52.650 267.600,53.499 265.723,50.663 264.469 C 46.975 262.838,47.200 264.633,47.200 236.869 L 47.200 212.461 48.243 211.222 C 49.984 209.152,50.531 209.014,57.800 208.800 L 64.600 208.600 64.727 207.500 C 64.835 206.561,65.082 206.364,66.427 206.149 L 68.000 205.898 68.000 203.526 C 68.000 194.426,69.707 193.600,88.508 193.600 C 101.468 193.600,102.119 193.564,103.091 192.800 C 103.650 192.360,104.624 192.000,105.254 192.000 L 106.400 192.000 106.400 188.426 C 106.400 186.460,106.230 184.404,106.022 183.857 C 105.123 181.494,108.008 181.474,109.500 183.832 C 110.881 186.017,110.717 186.666,109.033 185.673 C 106.992 184.468,106.826 185.055,107.649 190.584 L 108.097 193.600 119.749 193.619 C 135.128 193.645,136.368 194.260,136.800 202.081 L 137.000 205.698 138.384 206.149 C 139.343 206.462,139.839 206.906,140.001 207.600 C 140.231 208.587,140.300 208.603,145.217 208.800 C 150.751 209.022,152.081 209.500,153.446 211.754 C 154.487 213.473,154.629 259.752,153.600 261.785 C 152.882 263.204,150.639 264.800,149.364 264.800 C 148.081 264.800,147.815 265.458,148.609 266.670 C 149.106 267.428,149.372 267.569,149.603 267.194 C 149.777 266.913,150.198 266.790,150.539 266.921 C 150.982 267.091,151.091 266.981,150.919 266.533 C 150.714 266.000,150.810 265.977,151.570 266.384 C 152.416 266.837,152.436 266.814,151.976 265.930 C 151.710 265.419,151.640 265.139,151.821 265.309 C 152.160 265.627,155.600 262.510,155.600 261.885 C 155.600 261.694,156.320 260.846,157.200 260.000 C 158.080 259.154,158.800 258.269,158.800 258.032 C 158.800 257.795,159.520 256.859,160.400 255.952 C 161.280 255.045,162.000 254.055,162.000 253.752 C 162.000 253.448,162.152 253.200,162.337 253.200 C 162.523 253.200,163.107 252.345,163.637 251.300 C 164.166 250.255,164.914 249.051,165.299 248.625 C 165.685 248.198,166.000 247.613,166.000 247.325 C 166.000 247.036,166.180 246.800,166.400 246.800 C 166.620 246.800,166.800 246.566,166.800 246.280 C 166.800 245.544,167.741 243.607,168.100 243.603 C 168.265 243.601,168.400 243.161,168.400 242.624 C 168.400 242.087,168.580 241.536,168.800 241.400 C 169.020 241.264,169.200 240.803,169.200 240.376 C 169.200 239.949,169.380 239.600,169.600 239.600 C 169.820 239.600,170.000 239.240,170.000 238.800 C 170.000 238.360,170.180 238.000,170.400 238.000 C 170.620 238.000,170.800 237.471,170.800 236.824 C 170.800 236.177,170.980 235.536,171.200 235.400 C 171.420 235.264,171.600 234.713,171.600 234.176 C 171.600 233.639,171.780 233.200,172.000 233.200 C 172.220 233.200,172.400 232.671,172.400 232.024 C 172.400 231.377,172.580 230.736,172.800 230.600 C 173.020 230.464,173.200 229.744,173.200 229.000 C 173.200 228.256,173.380 227.536,173.600 227.400 C 173.820 227.264,174.000 226.173,174.000 224.976 C 174.000 223.779,174.180 222.800,174.400 222.800 C 174.633 222.800,174.800 221.475,174.800 219.624 C 174.800 217.877,174.969 216.343,175.176 216.215 C 175.382 216.087,175.552 213.471,175.552 210.400 C 175.552 207.329,175.382 204.713,175.176 204.585 C 174.969 204.457,174.800 203.204,174.800 201.800 C 174.800 200.396,174.620 199.136,174.400 199.000 C 174.180 198.864,174.000 197.683,174.000 196.376 C 174.000 195.059,173.822 194.000,173.600 194.000 C 173.380 194.000,173.200 193.280,173.200 192.400 C 173.200 191.520,173.020 190.800,172.800 190.800 C 172.580 190.800,172.400 190.181,172.400 189.424 C 172.400 188.667,172.220 187.936,172.000 187.800 C 171.780 187.664,171.600 187.124,171.600 186.600 C 171.600 186.076,171.420 185.536,171.200 185.400 C 170.980 185.264,170.800 184.623,170.800 183.976 C 170.800 183.329,170.620 182.800,170.400 182.800 C 170.180 182.800,170.000 182.455,170.000 182.033 C 170.000 181.612,169.822 181.207,169.603 181.133 C 169.385 181.060,169.167 180.518,169.119 179.929 C 169.070 179.340,168.888 178.945,168.715 179.052 C 168.542 179.160,168.400 178.802,168.400 178.257 C 168.400 177.712,168.265 177.207,168.100 177.133 C 167.668 176.941,166.000 173.628,166.000 172.962 C 166.000 172.653,165.820 172.400,165.600 172.400 C 165.380 172.400,165.200 172.164,165.200 171.875 C 165.200 171.587,164.840 170.964,164.400 170.492 C 163.960 170.020,163.600 169.433,163.600 169.188 C 163.600 167.575,161.300 167.620,161.213 169.236 C 161.149 170.419,156.622 170.762,156.016 169.629 C 155.466 168.602,157.181 166.502,158.714 166.325 C 160.279 166.145,160.078 163.567,158.375 161.976 C 157.729 161.373,157.200 160.760,157.200 160.614 C 157.200 160.055,148.905 151.600,148.357 151.600 C 148.126 151.600,147.246 150.880,146.400 150.000 C 145.554 149.120,144.659 148.400,144.410 148.400 C 144.160 148.400,143.381 147.861,142.678 147.202 C 141.975 146.543,141.175 146.003,140.900 146.002 C 140.625 146.001,140.400 145.820,140.400 145.600 C 140.400 145.380,140.055 145.200,139.633 145.200 C 139.212 145.200,138.786 144.975,138.688 144.700 C 138.162 143.227,137.803 145.256,137.662 150.506 C 137.592 153.123,136.300 154.396,133.709 154.399 C 130.022 154.403,131.056 150.531,134.809 150.279 L 136.600 150.158 136.549 147.579 C 136.452 142.761,136.460 142.800,135.600 142.800 C 135.160 142.800,134.800 142.620,134.800 142.400 C 134.800 142.180,134.440 142.000,134.000 142.000 C 133.560 142.000,133.200 141.820,133.200 141.600 C 133.200 141.380,132.840 141.200,132.400 141.200 C 131.960 141.200,131.600 141.020,131.600 140.800 C 131.600 140.580,131.240 140.400,130.800 140.400 C 130.360 140.400,130.000 140.220,130.000 140.000 C 130.000 139.780,129.640 139.600,129.200 139.600 C 128.760 139.600,128.400 139.420,128.400 139.200 C 128.400 138.980,127.860 138.800,127.200 138.800 C 126.540 138.800,126.000 138.620,126.000 138.400 C 126.000 138.180,125.651 138.000,125.224 138.000 C 124.797 138.000,124.336 137.820,124.200 137.600 C 124.064 137.380,123.333 137.200,122.576 137.200 C 121.819 137.200,121.200 137.020,121.200 136.800 C 121.200 136.580,120.660 136.400,120.000 136.400 C 119.340 136.400,118.800 136.220,118.800 136.000 C 118.800 135.780,118.080 135.600,117.200 135.600 C 116.320 135.600,115.600 135.420,115.600 135.200 C 115.600 134.978,114.541 134.800,113.224 134.800 C 111.917 134.800,110.736 134.620,110.600 134.400 C 110.464 134.180,109.024 134.000,107.400 134.000 C 105.776 134.000,104.347 133.838,104.225 133.641 C 103.902 133.117,93.200 133.061,93.200 133.583 M63.006 141.894 C 62.569 142.004,61.918 142.434,61.559 142.847 C 61.200 143.261,60.689 143.600,60.425 143.600 C 58.958 143.600,57.430 150.153,58.712 150.946 C 59.481 151.421,64.299 145.833,64.977 143.681 C 65.247 142.824,64.660 141.534,64.051 141.646 C 63.913 141.672,63.443 141.783,63.006 141.894 M78.267 145.405 C 79.232 147.178,79.401 148.000,78.800 148.000 C 78.580 148.000,78.400 147.659,78.400 147.243 C 78.400 145.996,77.215 145.893,75.748 147.013 C 74.424 148.023,74.011 148.800,74.800 148.800 C 75.020 148.800,75.200 149.160,75.200 149.600 C 75.200 150.040,75.351 150.400,75.536 150.400 C 76.629 150.400,76.826 152.556,75.825 153.557 C 74.277 155.105,72.892 153.805,74.391 152.210 C 75.417 151.118,75.188 150.095,73.500 148.225 C 72.472 147.085,72.617 146.620,74.500 145.035 C 76.570 143.292,77.147 143.349,78.267 145.405 M80.000 149.120 C 80.000 150.406,79.359 151.200,78.320 151.200 C 77.335 151.200,77.410 150.054,78.470 148.926 C 79.613 147.709,80.000 147.758,80.000 149.120 M126.946 149.629 C 128.096 150.533,128.271 151.667,127.509 153.281 C 126.983 154.396,125.600 155.499,125.600 154.803 C 125.600 154.582,125.780 154.400,126.000 154.400 C 126.642 154.400,126.460 151.717,125.771 151.029 C 125.426 150.683,124.616 150.400,123.971 150.400 C 122.573 150.400,122.460 149.958,123.700 149.344 C 125.078 148.662,125.796 148.725,126.946 149.629 M122.209 151.945 C 121.917 153.674,122.531 154.617,124.228 155.043 C 125.790 155.435,125.348 156.000,123.480 156.000 C 120.918 156.000,119.813 153.569,121.296 151.195 C 122.085 149.932,122.493 150.268,122.209 151.945 M110.610 154.432 C 110.905 155.360,110.427 158.800,110.003 158.800 C 109.835 158.800,109.473 158.260,109.200 157.600 C 108.550 156.030,108.409 156.071,107.049 158.223 C 106.416 159.225,105.694 160.259,105.444 160.522 C 105.194 160.785,104.673 161.495,104.286 162.100 C 103.390 163.499,101.055 163.630,99.454 162.371 C 96.862 160.332,99.376 158.357,102.522 159.960 L 104.012 160.720 105.906 157.924 C 109.311 152.897,109.968 152.409,110.610 154.432 M54.509 156.518 C 49.179 162.069,48.828 167.923,53.714 169.789 C 56.654 170.911,57.377 170.591,57.521 168.106 L 57.641 166.012 56.458 166.248 C 53.763 166.787,53.422 161.433,56.000 159.048 C 57.340 157.808,57.600 157.314,57.600 156.007 C 57.600 153.693,57.151 153.767,54.509 156.518 M144.400 160.792 C 144.950 161.170,146.152 161.805,147.070 162.204 C 148.853 162.976,149.363 163.920,148.798 165.404 C 147.994 167.519,146.268 166.825,146.477 164.471 C 146.585 163.245,146.435 162.987,145.215 162.300 L 143.831 161.522 143.115 162.405 C 142.102 163.656,142.154 165.600,143.200 165.600 C 143.640 165.600,144.000 165.780,144.000 166.000 C 144.000 166.220,144.276 166.400,144.614 166.400 C 146.711 166.400,148.129 169.531,146.605 170.796 C 145.461 171.745,144.679 170.954,144.892 169.063 C 145.081 167.381,145.049 167.323,143.540 166.670 C 141.578 165.820,141.790 165.742,141.051 167.588 C 140.272 169.537,140.448 170.063,142.106 170.732 C 144.884 171.851,145.396 172.297,145.520 173.706 C 145.655 175.230,144.814 176.245,143.754 175.838 C 143.238 175.640,143.140 175.211,143.295 173.832 C 143.508 171.948,143.544 171.989,140.500 170.754 C 137.560 169.561,137.558 169.550,139.424 164.540 C 141.442 159.124,141.695 158.933,144.400 160.792 M58.800 165.013 C 58.800 170.491,59.048 171.045,61.024 169.987 C 64.067 168.359,64.159 162.130,61.164 160.581 C 58.865 159.393,58.800 159.516,58.800 165.013 M56.015 161.185 C 54.847 162.353,54.938 163.857,56.191 164.096 C 57.467 164.340,57.600 164.175,57.600 162.357 C 57.600 160.498,57.083 160.117,56.015 161.185 M73.022 163.100 C 73.385 163.925,73.819 164.960,73.987 165.400 C 74.389 166.450,74.977 167.874,75.724 169.600 C 77.112 172.809,75.943 175.200,72.984 175.200 C 70.626 175.200,70.924 172.705,73.445 171.348 C 74.859 170.586,74.902 170.288,73.921 168.000 C 73.686 167.450,73.316 166.550,73.100 166.000 C 72.884 165.450,72.548 164.687,72.353 164.305 C 71.988 163.587,71.861 161.600,72.181 161.600 C 72.281 161.600,72.659 162.275,73.022 163.100 M122.171 169.365 C 122.509 169.931,122.443 170.180,121.857 170.541 C 120.000 171.687,119.199 172.524,119.187 173.329 C 119.175 174.157,119.126 174.144,118.183 173.072 C 117.020 171.750,117.174 171.316,119.407 169.628 C 121.142 168.316,121.523 168.280,122.171 169.365 M124.370 173.345 C 125.021 174.561,124.227 176.000,122.904 176.000 C 121.755 176.000,121.693 174.802,122.791 173.809 C 123.225 173.415,123.485 172.937,123.367 172.747 C 123.249 172.556,123.313 172.400,123.509 172.400 C 123.705 172.400,124.092 172.825,124.370 173.345 M41.545 174.100 C 42.418 176.516,41.183 179.439,40.205 177.273 C 39.650 176.046,39.419 176.220,36.831 179.812 C 34.143 183.542,32.122 184.153,30.130 181.837 C 28.298 179.707,31.414 178.074,33.937 179.841 C 34.440 180.193,34.900 180.418,34.958 180.341 C 35.017 180.263,36.038 178.760,37.228 177.000 C 40.051 172.824,40.882 172.266,41.545 174.100 M120.300 175.483 C 121.276 177.584,120.787 178.800,118.967 178.800 C 118.205 178.800,118.245 177.427,119.026 176.779 C 119.423 176.449,119.566 175.920,119.418 175.330 C 119.099 174.059,119.686 174.161,120.300 175.483 M88.804 175.608 C 89.042 176.053,89.404 177.884,89.609 179.679 C 90.037 183.435,89.794 184.000,87.751 184.000 C 85.912 184.000,85.885 182.736,87.705 181.872 C 89.426 181.055,89.486 177.600,87.779 177.600 C 85.884 177.600,84.800 178.424,84.800 179.864 C 84.800 180.599,84.620 181.200,84.400 181.200 C 84.180 181.200,84.000 180.660,84.000 180.000 C 84.000 178.677,83.745 178.598,81.500 179.221 C 80.050 179.624,80.000 179.698,80.000 181.442 C 80.000 182.544,79.844 183.151,79.600 183.000 C 79.380 182.864,79.200 181.989,79.200 181.056 C 79.200 180.123,78.983 179.143,78.717 178.877 C 77.690 177.850,79.146 177.202,87.000 175.189 C 87.660 175.020,88.239 174.863,88.286 174.841 C 88.333 174.818,88.566 175.164,88.804 175.608 M165.511 179.823 C 167.320 181.090,165.941 185.600,163.745 185.600 C 163.445 185.600,163.200 185.780,163.200 186.000 C 163.200 186.622,161.079 186.471,160.089 185.777 C 159.084 185.073,158.866 182.649,159.713 181.590 C 161.437 179.433,163.888 178.686,165.511 179.823 M161.546 180.667 C 160.020 181.073,160.274 184.220,161.882 184.831 C 164.591 185.861,166.409 182.062,163.781 180.864 C 162.727 180.384,162.638 180.376,161.546 180.667 M85.600 183.171 C 85.600 183.975,83.857 185.600,82.995 185.600 C 82.089 185.600,81.561 184.600,82.107 183.917 C 83.324 182.393,85.600 181.907,85.600 183.171 M80.600 184.790 C 80.600 186.073,78.622 187.536,77.686 186.945 C 76.643 186.288,76.858 185.528,78.373 184.507 C 79.975 183.427,80.600 183.506,80.600 184.790 M50.500 189.909 C 51.567 190.846,51.392 192.899,50.139 194.152 C 49.556 194.735,48.976 195.110,48.851 194.984 C 48.726 194.859,48.815 194.631,49.050 194.478 C 50.673 193.420,49.583 190.400,47.577 190.400 C 46.174 190.400,46.057 189.957,47.300 189.349 C 48.347 188.836,49.510 189.040,50.500 189.909 M161.596 190.751 C 161.708 190.908,162.836 191.538,164.102 192.149 C 166.722 193.415,167.378 194.279,166.825 195.735 C 165.997 197.911,164.263 197.273,164.477 194.871 C 164.718 192.150,161.317 191.153,160.531 193.714 C 160.040 195.314,160.172 195.607,161.700 196.301 C 162.305 196.575,163.255 197.013,163.811 197.273 C 165.017 197.838,165.470 199.289,164.859 200.629 C 163.963 202.596,161.910 201.234,162.683 199.187 C 163.549 196.891,159.952 195.583,159.005 197.849 C 158.180 199.823,158.266 199.974,161.030 201.429 C 163.555 202.759,164.133 203.857,163.211 205.580 C 162.233 207.408,160.444 205.789,161.211 203.771 C 161.437 203.176,161.572 202.661,161.511 202.627 C 160.856 202.265,157.637 200.822,157.091 200.646 C 155.542 200.148,155.622 199.542,158.090 193.067 C 159.270 189.970,160.476 189.174,161.596 190.751 M45.402 191.989 C 45.118 193.282,46.540 195.200,47.782 195.200 C 48.122 195.200,48.400 195.380,48.400 195.600 C 48.400 196.186,45.518 196.064,44.700 195.443 C 43.881 194.821,43.771 192.755,44.496 191.595 C 45.228 190.423,45.701 190.629,45.402 191.989 M34.218 197.800 C 34.810 199.010,35.453 200.000,35.647 200.000 C 36.313 200.000,36.000 201.876,35.215 202.587 C 33.777 203.887,32.428 202.429,33.800 201.057 C 35.561 199.297,33.781 197.062,31.814 198.563 C 30.408 199.635,30.036 200.528,30.800 201.000 C 31.020 201.136,31.200 201.507,31.200 201.824 C 31.200 202.141,31.020 202.400,30.800 202.400 C 30.580 202.400,30.400 202.080,30.400 201.688 C 30.400 201.297,30.040 200.717,29.600 200.400 C 28.276 199.445,28.573 197.864,30.300 196.678 C 32.513 195.159,32.992 195.296,34.218 197.800 M75.143 197.657 C 72.608 199.138,70.634 205.204,72.500 205.779 C 72.775 205.864,73.514 206.046,74.142 206.185 C 74.920 206.356,75.425 206.812,75.729 207.618 L 76.175 208.800 102.298 208.800 L 128.420 208.800 128.791 207.824 C 129.226 206.680,130.337 206.000,131.774 206.000 C 134.339 206.000,132.700 199.076,129.785 197.600 C 127.577 196.482,77.065 196.534,75.143 197.657 M32.176 203.447 C 32.480 204.659,31.514 206.000,30.338 206.000 C 29.318 206.000,29.388 204.650,30.472 203.403 C 31.573 202.137,31.849 202.144,32.176 203.447 M41.000 212.400 C 41.136 212.620,40.995 212.800,40.688 212.800 C 38.578 212.800,39.389 216.520,41.545 216.728 C 43.757 216.942,44.726 214.931,43.200 213.292 C 41.776 211.764,42.761 211.425,44.546 212.829 C 45.880 213.878,45.907 215.329,44.618 216.618 C 42.536 218.701,37.600 217.421,37.600 214.799 C 37.600 213.270,40.342 211.336,41.000 212.400 M124.174 215.324 C 124.054 215.635,124.012 216.949,124.078 218.245 L 124.200 220.600 126.400 220.600 L 128.600 220.600 128.600 217.800 L 128.600 215.000 126.496 214.879 C 124.965 214.791,124.332 214.912,124.174 215.324 M131.383 215.727 C 131.255 216.236,131.206 217.541,131.275 218.627 L 131.400 220.600 135.200 220.600 L 139.000 220.600 139.125 218.627 C 139.363 214.864,139.297 214.800,135.200 214.800 C 131.786 214.800,131.604 214.844,131.383 215.727 M153.232 266.300 C 153.179 267.127,153.365 267.361,154.117 267.416 C 155.024 267.483,155.251 267.124,154.774 266.381 C 154.461 265.895,154.342 265.889,154.048 266.345 C 153.752 266.806,153.663 266.806,153.480 266.345 C 153.326 265.958,153.254 265.945,153.232 266.300 M156.400 267.400 C 156.400 267.730,156.580 268.000,156.800 268.000 C 157.020 268.000,157.200 267.730,157.200 267.400 C 157.200 267.070,157.020 266.800,156.800 266.800 C 156.580 266.800,156.400 267.070,156.400 267.400 M155.800 268.685 C 154.604 268.973,154.209 269.508,155.273 269.398 C 155.783 269.345,156.425 269.279,156.700 269.251 C 156.975 269.223,157.200 269.020,157.200 268.800 C 157.200 268.381,157.099 268.373,155.800 268.685 M50.819 269.572 C 50.500 269.778,50.095 269.858,49.919 269.750 C 49.744 269.642,49.600 269.733,49.600 269.953 C 49.600 270.173,49.780 270.464,50.000 270.600 C 50.220 270.736,50.400 270.638,50.400 270.381 C 50.400 270.125,50.922 270.474,51.560 271.158 C 52.199 271.841,53.009 272.400,53.360 272.400 C 53.712 272.400,54.000 272.550,54.000 272.732 C 54.000 272.915,54.495 273.319,55.100 273.630 C 55.705 273.940,56.491 274.511,56.847 274.897 C 57.203 275.284,57.788 275.600,58.147 275.600 C 58.506 275.600,58.800 275.780,58.800 276.000 C 58.800 276.220,59.036 276.400,59.325 276.400 C 59.613 276.400,60.236 276.760,60.708 277.200 C 61.180 277.640,61.718 278.000,61.904 278.000 C 62.497 278.000,64.394 278.989,64.397 279.300 C 64.399 279.465,64.760 279.600,65.200 279.600 C 65.640 279.600,66.000 279.780,66.000 280.000 C 66.000 280.220,66.349 280.400,66.776 280.400 C 67.203 280.400,67.664 280.580,67.800 280.800 C 67.936 281.020,68.487 281.200,69.024 281.200 C 69.561 281.200,70.000 281.380,70.000 281.600 C 70.000 281.820,70.349 282.000,70.776 282.000 C 71.203 282.000,71.664 282.180,71.800 282.400 C 71.936 282.620,72.566 282.800,73.200 282.800 C 73.834 282.800,74.464 282.980,74.600 283.200 C 74.736 283.420,75.377 283.600,76.024 283.600 C 76.671 283.600,77.200 283.780,77.200 284.000 C 77.200 284.220,77.920 284.400,78.800 284.400 C 79.680 284.400,80.400 284.580,80.400 284.800 C 80.400 285.020,81.120 285.200,82.000 285.200 C 82.880 285.200,83.600 285.380,83.600 285.600 C 83.600 285.822,84.659 286.000,85.976 286.000 C 87.283 286.000,88.464 286.180,88.600 286.400 C 88.754 286.649,92.537 286.800,98.624 286.800 C 104.875 286.800,108.400 286.656,108.400 286.400 C 108.400 286.180,109.379 286.000,110.576 286.000 C 111.773 286.000,112.864 285.820,113.000 285.600 C 113.136 285.380,113.946 285.200,114.800 285.200 C 115.654 285.200,116.464 285.020,116.600 284.800 C 116.736 284.580,117.546 284.400,118.400 284.400 C 119.254 284.400,120.064 284.220,120.200 284.000 C 120.336 283.780,120.962 283.600,121.590 283.600 C 122.219 283.600,122.793 283.422,122.867 283.203 C 122.940 282.985,123.482 282.767,124.071 282.719 C 124.660 282.670,125.055 282.488,124.948 282.315 C 124.840 282.142,125.213 282.000,125.776 282.000 C 126.339 282.000,126.800 281.820,126.800 281.600 C 126.800 281.380,127.340 281.200,128.000 281.200 C 128.660 281.200,129.201 281.065,129.203 280.900 C 129.207 280.541,131.144 279.600,131.880 279.600 C 132.166 279.600,132.400 279.420,132.400 279.200 C 132.400 278.980,132.760 278.800,133.200 278.800 C 133.640 278.800,134.000 278.620,134.000 278.400 C 134.000 278.180,134.360 278.000,134.800 278.000 C 135.240 278.000,135.600 277.820,135.600 277.600 C 135.600 277.380,135.878 277.200,136.217 277.200 C 136.556 277.200,137.220 276.840,137.692 276.400 C 138.164 275.960,138.787 275.600,139.075 275.600 C 139.364 275.600,139.600 275.420,139.600 275.200 C 139.600 274.980,139.878 274.800,140.218 274.800 C 140.558 274.800,141.290 274.347,141.844 273.792 C 142.398 273.238,143.048 272.906,143.288 273.054 C 143.549 273.215,143.609 273.138,143.438 272.862 C 143.281 272.608,143.356 272.400,143.605 272.400 C 144.127 272.400,144.795 271.731,145.481 270.520 C 146.030 269.552,145.102 268.851,144.229 269.576 C 143.247 270.391,74.240 271.200,73.446 270.406 C 73.200 270.160,70.076 270.000,65.544 270.000 C 61.421 270.000,57.951 269.844,57.833 269.653 C 57.538 269.176,51.539 269.107,50.819 269.572 " stroke="none" fill="#efefef" fill-rule="evenodd"></path><path id="path4" d="M55.790 215.299 C 55.661 215.813,55.610 217.306,55.678 218.617 L 55.800 221.000 58.600 221.000 L 61.400 221.000 61.400 217.800 L 61.400 214.600 58.712 214.482 C 56.183 214.371,56.010 214.419,55.790 215.299 M63.768 214.940 C 63.654 215.237,63.615 216.722,63.680 218.240 L 63.800 221.000 92.156 221.103 C 112.770 221.177,120.660 221.082,121.056 220.754 C 121.616 220.289,121.828 216.260,121.357 215.033 C 121.017 214.147,64.107 214.055,63.768 214.940 M140.084 217.700 L 140.200 221.000 142.400 221.000 L 144.600 221.000 144.716 217.700 L 144.832 214.400 142.400 214.400 L 139.968 214.400 140.084 217.700 M88.073 229.090 L 88.200 230.200 98.486 230.260 C 108.252 230.317,108.783 230.282,109.012 229.564 C 109.467 228.128,108.909 228.046,98.363 228.013 L 87.945 227.981 88.073 229.090 M110.243 228.331 C 109.836 228.989,110.500 230.439,111.152 230.316 C 112.173 230.123,112.263 228.000,111.250 228.000 C 110.809 228.000,110.355 228.149,110.243 228.331 M112.956 228.570 C 112.592 229.519,113.107 230.477,113.899 230.324 C 114.342 230.239,114.600 229.825,114.600 229.200 C 114.600 228.060,113.337 227.576,112.956 228.570 M88.800 235.492 C 87.732 235.898,87.612 236.520,87.606 241.686 C 87.598 248.151,86.351 247.600,101.000 247.600 C 115.694 247.600,114.400 248.199,114.400 241.400 C 114.400 236.498,114.332 235.992,113.626 235.614 C 112.814 235.179,89.917 235.066,88.800 235.492 M108.100 239.757 C 108.901 240.365,109.035 242.405,108.320 243.120 C 107.708 243.732,95.502 243.790,94.374 243.186 C 93.414 242.672,93.354 240.935,94.262 239.931 C 95.115 238.989,106.892 238.840,108.100 239.757 " stroke="none" fill="#b5403e" fill-rule="evenodd"></path></g></svg>